<svg width="100" height="101" viewBox="0 0 100 101" fill="none" xmlns="http://www.w3.org/2000/svg">
<path d="M79.0798 30.2121H80.9138C83.6598 30.2121 85.9088 28.084 86.1016 25.3871C86.1164 25.1799 86.2834 25.0109 86.4911 25.0109C86.6989 25.0109 86.8659 25.1799 86.8807 25.3871C87.0734 28.084 89.3224 30.2121 92.0684 30.2121H93.5322C93.5906 30.2121 93.638 30.2594 93.638 30.3179V32.8228C93.638 33.3696 93.1947 33.8129 92.6479 33.8129H79.9582C79.4114 33.8129 78.9681 33.3696 78.9681 32.8228V30.3237C78.9681 30.2621 79.0181 30.2121 79.0798 30.2121Z" fill="#FFF7F1"/>
<path d="M93.6259 3.49506H78.9802C78.4334 3.49506 77.9901 3.93834 77.9901 4.48515V16.698C77.9901 21.2891 81.7119 25.0109 86.303 25.0109C90.8941 25.0109 94.616 21.2891 94.616 16.698V4.48516C94.616 3.93834 94.1727 3.49506 93.6259 3.49506Z" fill="#FFF7F1"/>
<path d="M38.2254 81.2115C38.2254 80.6647 38.6687 80.2214 39.2155 80.2214H47.2431C47.7899 80.2214 48.2332 80.6647 48.2332 81.2115V93.5652H38.2254V81.2115Z" fill="#FFF7F1"/>
<path d="M59.353 64.5319C59.353 63.9851 59.7962 63.5418 60.3431 63.5418H68.3706C68.9175 63.5418 69.3607 63.9851 69.3607 64.5319V93.5652H59.353V64.5319Z" fill="#FFF7F1"/>
<path d="M80.4804 47.8522C80.4804 47.3054 80.9237 46.8621 81.4705 46.8621H89.4981C90.0449 46.8621 90.4882 47.3054 90.4882 47.8522V93.5651H80.4804V47.8522Z" fill="#FFF7F1"/>
<path d="M35.3575 82.0067C35.3575 91.6334 27.5535 99.4374 17.9268 99.4374C8.30008 99.4374 0.496094 91.6334 0.496094 82.0067C0.496094 72.38 8.30008 64.576 17.9268 64.576C27.5535 64.576 35.3575 72.38 35.3575 82.0067Z" fill="#FFF7F1"/>
<path fill-rule="evenodd" clip-rule="evenodd" d="M62.0687 25.9623H66.5241C66.7975 25.9623 67.0192 26.184 67.0192 26.4574V30.9128C67.0192 31.1862 66.7975 31.4079 66.5241 31.4079C66.2507 31.4079 66.0291 31.1862 66.0291 30.9128V27.6525L32.9589 60.7227C32.7656 60.916 32.4521 60.916 32.2588 60.7227C32.0655 60.5294 32.0655 60.2159 32.2588 60.0226L65.329 26.9524H62.0687C61.7953 26.9524 61.5736 26.7308 61.5736 26.4574C61.5736 26.184 61.7953 25.9623 62.0687 25.9623Z" fill="black"/>
<path fill-rule="evenodd" clip-rule="evenodd" d="M78.9791 3C78.1589 3 77.494 3.66492 77.494 4.48515V5.93416H74.0892C73.269 5.93416 72.604 6.59908 72.604 7.41931V13.9737C72.604 16.562 74.7022 18.6602 77.2905 18.6602H77.7134C78.5546 22.3579 81.7226 25.1709 85.596 25.4781C85.3615 27.8579 83.3542 29.717 80.9128 29.717H79.0787C78.7436 29.717 78.472 29.9887 78.472 30.3237V32.8228C78.472 33.643 79.1369 34.3079 79.9571 34.3079H92.6469C93.4671 34.3079 94.132 33.643 94.132 32.8228V30.3179C94.132 29.986 93.863 29.717 93.5312 29.717H92.0674C89.6131 29.717 87.5977 27.8383 87.3806 25.4406C91.0834 24.9885 94.0765 22.2386 94.8906 18.6602H95.3135C97.9018 18.6602 100 16.562 100 13.9737V7.41931C100 6.59908 99.3351 5.93416 98.5149 5.93416H95.11V4.48515C95.11 3.66492 94.4451 3 93.6248 3H78.9791ZM78.4841 16.7198C78.4958 21.0211 81.9813 24.5056 86.283 24.5159H86.321C90.63 24.5056 94.1199 21.0093 94.1199 16.698V4.48515C94.1199 4.21174 93.8982 3.9901 93.6248 3.9901H78.9791C78.7057 3.9901 78.4841 4.21174 78.4841 4.48515L78.4841 16.7198ZM74.0892 6.92426H77.494V16.698L77.494 16.7211V17.6701H77.2905C75.2491 17.6701 73.5941 16.0152 73.5941 13.9737V7.41931C73.5941 7.1459 73.8158 6.92426 74.0892 6.92426ZM80.9128 30.7071C83.66 30.7071 85.953 28.7623 86.4901 26.1743C87.0271 28.7623 89.3201 30.7071 92.0674 30.7071H93.1419V32.8228C93.1419 33.0962 92.9203 33.3178 92.6469 33.3178H79.9571C79.6837 33.3178 79.4621 33.0962 79.4621 32.8228V30.7071H80.9128ZM99.0099 7.41931C99.0099 7.1459 98.7883 6.92426 98.5149 6.92426H95.11V17.6701H95.3135C97.355 17.6701 99.0099 16.0152 99.0099 13.9737V7.41931Z" fill="black"/>
<path fill-rule="evenodd" clip-rule="evenodd" d="M31.1941 94.0602H97.2809C98.1011 94.0602 98.7661 93.3953 98.7661 92.5751V41.3023C98.7661 40.4147 98.0466 39.6952 97.159 39.6952H74.5524C73.6649 39.6952 72.9454 40.4147 72.9454 41.3023V56.8477C72.9454 57.1884 72.6692 57.4646 72.3285 57.4646H53.8153C52.9277 57.4646 52.2082 58.1841 52.2082 59.0716V74.0944C52.2082 74.4352 51.932 74.7114 51.5913 74.7114H34.3047C31.5104 68.4472 25.228 64.081 17.9257 64.081C8.02563 64.081 0 72.1066 0 82.0067C0 91.9068 8.02563 99.9324 17.9257 99.9324C23.1849 99.9324 27.915 97.6677 31.1941 94.0602ZM74.5524 40.6853C74.2117 40.6853 73.9355 40.9616 73.9355 41.3023V56.8477C73.9355 57.7352 73.216 58.4547 72.3285 58.4547H53.8153C53.4745 58.4547 53.1983 58.7309 53.1983 59.0716V74.0944C53.1983 74.982 52.4789 75.7015 51.5913 75.7015H34.7112C35.4483 77.6629 35.8515 79.7877 35.8515 82.0067C35.8515 86.1816 34.4243 90.0232 32.0311 93.0701H37.7293V81.2115C37.7293 80.3913 38.3942 79.7264 39.2144 79.7264H47.242C48.0622 79.7264 48.7272 80.3913 48.7272 81.2115V93.0701H58.8569V64.5319C58.8569 63.7117 59.5218 63.0467 60.342 63.0467H68.3696C69.1898 63.0467 69.8548 63.7117 69.8548 64.5319V93.0701H79.9843V47.8522C79.9843 47.032 80.6493 46.3671 81.4695 46.3671H89.4971C90.3173 46.3671 90.9822 47.032 90.9822 47.8522V93.0701H97.2809C97.5543 93.0701 97.776 92.8485 97.776 92.5751V41.3023C97.776 40.9615 97.4998 40.6853 97.159 40.6853H74.5524ZM47.7371 93.0701H38.7194V81.2115C38.7194 80.9381 38.941 80.7165 39.2144 80.7165H47.242C47.5154 80.7165 47.7371 80.9381 47.7371 81.2115V93.0701ZM68.8647 93.0701H59.847V64.5319C59.847 64.2585 60.0686 64.0368 60.342 64.0368H68.3696C68.643 64.0368 68.8647 64.2585 68.8647 64.5319V93.0701ZM80.9744 47.8522C80.9744 47.5788 81.1961 47.3571 81.4695 47.3571H89.4971C89.7705 47.3571 89.9921 47.5788 89.9921 47.8522V93.07H80.9744V47.8522ZM0.990099 82.0067C0.990099 72.6534 8.57244 65.0711 17.9257 65.0711C27.279 65.0711 34.8614 72.6534 34.8614 82.0067C34.8614 91.36 27.279 98.9423 17.9257 98.9423C8.57244 98.9423 0.990099 91.36 0.990099 82.0067Z" fill="black"/>
<path fill-rule="evenodd" clip-rule="evenodd" d="M19.1089 75.5117C19.3121 75.5785 19.4494 75.7681 19.4494 75.982V83.0707H21.3492C21.6226 83.0707 21.8443 83.2923 21.8443 83.5657C21.8443 83.8391 21.6226 84.0608 21.3492 84.0608H19.4494V88.3555C19.4494 88.6289 19.2278 88.8505 18.9544 88.8505C18.6809 88.8505 18.4593 88.6289 18.4593 88.3555V84.0608H13.3663C13.1796 84.0608 13.0087 83.9557 12.9245 83.789C12.8403 83.6223 12.857 83.4224 12.9678 83.2721L18.5558 75.6883C18.6827 75.5162 18.9057 75.4449 19.1089 75.5117ZM18.4593 83.0707V77.4884L14.346 83.0707H18.4593Z" fill="black"/>
</svg>
