<svg width="111" height="112" viewBox="0 0 111 112" fill="none" xmlns="http://www.w3.org/2000/svg">
<path d="M21.0977 110.969V97.7731H30.9949V110.969L26.0463 106.681L21.0977 110.969Z" fill="#FFF7F1"/>
<path d="M62.6059 32.0845C64.7392 30.3918 67.3516 29.6809 69.6136 30.0347C70.0293 32.399 69.0581 35.1695 66.8195 37.2805C64.5966 39.3769 61.6616 39.3108 59.166 38.9395C56.6703 39.3108 53.7804 39.3769 51.5575 37.2805C49.3189 35.1695 48.3477 32.399 48.7635 30.0347C50.9342 29.6952 53.4277 30.3362 55.5107 31.8845C55.6343 29.0225 57.0283 26.5468 59.055 25.1934C61.1288 26.5782 62.5401 29.1381 62.6059 32.0845Z" fill="#FFF7F1"/>
<path d="M37.551 37.1767C37.6959 33.7007 38.7992 28.8576 41.7578 24.8984C44.6969 20.9652 49.4937 17.8645 57.1367 17.8645C66.7344 17.8645 74.0622 22.3632 77.1775 29.3099C80.2939 36.2592 79.2659 45.8213 71.7938 56.077L71.7759 56.1016L71.7608 56.128C70.2607 58.7535 68.5512 64.5455 70.721 70.4716C70.7259 70.4848 70.729 70.4939 70.7311 70.5005L70.7336 70.5086C70.7353 70.5144 70.7364 70.5191 70.7374 70.5251C70.8553 71.1962 70.5513 71.7696 69.9145 72.2649C69.2685 72.7674 68.3471 73.125 67.4637 73.3063C66.603 73.4829 65.5609 73.6174 64.3841 73.6174C64.0805 73.6174 63.8343 73.8636 63.8343 74.1673C63.8343 74.4709 64.0805 74.7171 64.3841 74.7171C65.6445 74.7171 66.761 74.5731 67.6847 74.3835C68.6722 74.1809 69.7684 73.7717 70.5896 73.1329C71.4201 72.487 72.033 71.5448 71.8206 70.3349C71.8033 70.2366 71.7779 70.1596 71.7537 70.0935C69.7295 64.5653 71.3213 59.1328 72.7009 56.6996C80.3139 46.2369 81.5022 36.2659 78.1809 28.8599C74.8558 21.4453 67.0821 16.7648 57.1367 16.7648C49.1453 16.7648 44.0226 20.0304 40.8769 24.2401C37.7924 28.3678 36.6347 33.3644 36.4589 36.9841L31.0274 45.6248C30.3135 46.7605 30.7054 48.263 31.8831 48.9053L34.9671 50.5875C35.8731 51.0817 36.4261 52.0417 36.3989 53.0734L36.2618 58.2837C36.195 60.8226 38.1592 62.9544 40.6951 63.0953L45.6568 63.371C46.3069 63.4071 46.8156 63.9448 46.8156 64.5959V71.1309C46.8156 71.6806 47.0098 72.2819 47.5105 72.6812C48.7071 73.6354 50.8213 74.7171 55.3604 74.7171C55.6641 74.7171 55.9102 74.4709 55.9102 74.1673C55.9102 73.8636 55.6641 73.6174 55.3604 73.6174C51.0162 73.6174 49.1595 72.5896 48.1962 71.8214C48.024 71.6841 47.9153 71.4419 47.9153 71.1309V64.5959C47.9153 63.3611 46.9507 62.3415 45.7178 62.273L40.7561 61.9973C38.8141 61.8894 37.31 60.2569 37.3611 58.3126L37.4982 53.1023C37.5362 51.6579 36.7621 50.3139 35.4937 49.6221L32.4096 47.9399C31.7886 47.6012 31.582 46.8089 31.9584 46.21L37.5449 37.3227L37.551 37.1767Z" fill="black"/>
<path d="M41.6199 42.3831C41.8437 42.1779 42.1915 42.193 42.3967 42.4169C43.93 44.0896 46.5671 44.0896 48.1004 42.4169C48.3056 42.193 48.6535 42.1779 48.8773 42.3831C49.1012 42.5883 49.1163 42.9361 48.9111 43.1599C46.9419 45.3081 43.5553 45.3081 41.5861 43.1599C41.3809 42.9361 41.396 42.5883 41.6199 42.3831Z" fill="black"/>
<path fill-rule="evenodd" clip-rule="evenodd" d="M59.0537 24.3523L59.359 24.5562C61.6488 26.0853 63.1568 28.9157 63.1568 32.12C63.1568 35.3244 61.6488 38.1548 59.359 39.6839L59.0537 39.8878L58.7483 39.6839C58.6544 39.6212 58.5618 39.5563 58.4706 39.4893C58.3964 39.7116 58.1725 39.8697 57.9133 39.8621C55.6062 39.7946 53.169 38.8037 51.2416 36.9862C48.8926 34.7709 47.8399 31.8331 48.2896 29.2758L48.3558 28.8992L48.7551 28.8368C50.8195 28.5139 53.1167 29.0133 55.1272 30.2416C55.588 27.831 56.9185 25.7781 58.7483 24.5562L59.0537 24.3523ZM54.9505 32.12C54.9505 34.771 55.9827 37.166 57.6357 38.78C55.728 38.6453 53.6921 37.7881 52.0417 36.2317C50.0389 34.343 49.133 31.9263 49.3515 29.8382C51.0338 29.6815 52.9185 30.1364 54.61 31.1978C54.725 31.2699 54.8577 31.2972 54.985 31.284C54.9622 31.5593 54.9505 31.8383 54.9505 32.12ZM59.0537 25.6878C57.2615 27.0411 56.0502 29.4027 56.0502 32.12C56.0502 34.8374 57.2615 37.199 59.0537 38.5523C60.8458 37.199 62.0571 34.8374 62.0571 32.12C62.0571 29.4027 60.8458 27.0411 59.0537 25.6878Z" fill="black"/>
<path d="M70.3403 29.2758L70.2741 28.8992L69.8748 28.8368C67.7728 28.508 65.4294 29.0318 63.3931 30.3095C63.1329 30.4727 63.0624 30.8038 63.2355 31.0492C63.4085 31.2945 63.7597 31.361 64.0198 31.1978C65.7114 30.1364 67.596 29.6815 69.2783 29.8382C69.4969 31.9263 68.591 34.343 66.5882 36.2317C64.8472 37.8735 62.6773 38.7373 60.6815 38.7957C60.3692 38.8048 60.1239 39.0509 60.1335 39.3454C60.1432 39.6399 60.4043 39.8713 60.7165 39.8621C63.0237 39.7946 65.4609 38.8037 67.3882 36.9862C69.7373 34.7709 70.79 31.8331 70.3403 29.2758Z" fill="black"/>
<path fill-rule="evenodd" clip-rule="evenodd" d="M17.7981 0.450195C15.6724 0.450195 13.9492 2.17342 13.9492 4.29912V97.7731C13.9492 100.506 16.1648 102.722 18.8978 102.722L20.5474 102.722V110.969C20.5474 111.185 20.673 111.38 20.8688 111.47C21.0647 111.559 21.2947 111.526 21.4573 111.385L26.0458 107.408L30.6344 111.385C30.797 111.526 31.027 111.559 31.2229 111.47C31.4187 111.38 31.5443 111.185 31.5443 110.969V102.722L92.5773 102.722C94.703 102.722 96.4262 100.998 96.4262 98.8728V4.29912C96.4262 2.17342 94.703 0.450195 92.5773 0.450195H17.7981ZM21.6471 109.765V98.3229H30.4446V109.765L26.406 106.265C26.1993 106.086 25.8924 106.086 25.6857 106.265L21.6471 109.765ZM92.5773 101.622L31.5443 101.622V98.3229H60.6862C60.9899 98.3229 61.236 98.0767 61.236 97.7731C61.236 97.4694 60.9899 97.2232 60.6862 97.2232H21.0972C20.7936 97.2232 20.5474 97.4694 20.5474 97.7731V101.622H19.4477C17.0183 101.622 15.0489 99.6526 15.0489 97.2232C15.0489 94.7938 17.0183 92.8244 19.4477 92.8244H95.3265V97.2232H69.4837C69.1801 97.2232 68.9339 97.4694 68.9339 97.7731C68.9339 98.0767 69.1801 98.3229 69.4837 98.3229H95.3265V98.8728C95.3265 100.391 94.0956 101.622 92.5773 101.622ZM95.3265 91.7247V4.29912C95.3265 2.78076 94.0956 1.54989 92.5773 1.54989H17.7981C16.2798 1.54989 15.0489 2.78076 15.0489 4.29912V93.9236C16.0521 92.5884 17.649 91.7247 19.4477 91.7247H95.3265Z" fill="black"/>
</svg>
