<svg width="100" height="100" viewBox="0 0 100 100" fill="none" xmlns="http://www.w3.org/2000/svg">
<path d="M70.123 8.37879C72.8845 8.37879 75.123 10.6174 75.123 13.3788V34.0152C75.123 36.7767 72.8845 39.0152 70.123 39.0152L35.5 39.0152C32.7386 39.0152 30 36.7614 30 34L30 13.3635C30 10.6021 31.361 8.37878 34.1224 8.37878L70.123 8.37879Z" fill="#FFF7F1"/>
<path d="M35.5 81.8593C35.5 91.602 27.8834 99.5 18.1407 99.5C8.398 99.5 0.5 91.602 0.5 81.8593C0.5 72.1166 8.398 64.5 18.1407 64.5C27.8834 64.5 35.5 72.1166 35.5 81.8593Z" fill="#FFF7F1"/>
<path d="M66.1816 96.8839L60.6527 74.7682L82.2155 84.1673L72.2634 88.0376L66.1816 96.8839Z" fill="#FFF7F1"/>
<path d="M62.1739 17.33C62.3714 17.1409 62.3782 16.8275 62.1891 16.63C62 16.4326 61.6866 16.4258 61.4891 16.6149L49.2831 28.3039L43.5882 21.9413C43.4058 21.7376 43.0929 21.7202 42.8891 21.9026C42.6854 22.0849 42.6681 22.3979 42.8504 22.6016L48.8868 29.3458C48.9763 29.4458 49.1026 29.5051 49.2367 29.5103C49.3707 29.5155 49.5012 29.466 49.5981 29.3732L62.1739 17.33Z" fill="black"/>
<path fill-rule="evenodd" clip-rule="evenodd" d="M75.8644 13.2463C75.8644 10.2388 73.4264 7.80078 70.4189 7.80078L34.7747 7.80078C31.7672 7.80078 29.3291 10.2388 29.3291 13.2463L29.3291 33.6785C29.3291 36.6859 31.7672 39.124 34.7747 39.124H70.4189C73.4264 39.124 75.8644 36.686 75.8644 33.6785V13.2463ZM70.4189 8.79088C72.8795 8.79088 74.8743 10.7857 74.8743 13.2463V33.6785C74.8743 36.1391 72.8795 38.1339 70.4189 38.1339H34.7747C32.314 38.1339 30.3192 36.1391 30.3192 33.6785L30.3192 13.2463C30.3192 10.7856 32.314 8.79088 34.7747 8.79088L70.4189 8.79088Z" fill="black"/>
<path d="M32.8709 47.5729C32.8709 47.2995 33.0925 47.0779 33.3659 47.0779H70.5904C70.8638 47.0779 71.0854 47.2995 71.0854 47.5729C71.0854 47.8463 70.8638 48.068 70.5904 48.068H33.3659C33.0925 48.068 32.8709 47.8463 32.8709 47.5729Z" fill="black"/>
<path d="M33.3659 56.9315C33.0925 56.9315 32.8709 57.1531 32.8709 57.4265C32.8709 57.6999 33.0925 57.9216 33.3659 57.9216H70.5904C70.8638 57.9216 71.0854 57.6999 71.0854 57.4265C71.0854 57.1531 70.8638 56.9315 70.5904 56.9315H33.3659Z" fill="black"/>
<path d="M15.1115 84.6403C15.1115 85.169 15.4093 85.5919 15.8632 85.9051C16.3264 86.2246 16.8799 86.3749 17.2177 86.3749C19.1888 86.3749 20.297 84.7232 20.0769 83.6225C20.0705 83.5905 20.0672 83.558 20.0672 83.5254C20.0672 83.1944 19.8299 82.5658 19.3079 82.0045C18.8026 81.4612 18.0903 81.0475 17.2177 81.0475C17.0175 81.0475 16.837 80.9269 16.7604 80.7419C16.6837 80.5569 16.7261 80.344 16.8677 80.2024L19.7388 77.3314H14.6164C14.343 77.3314 14.1214 77.1097 14.1214 76.8363C14.1214 76.5629 14.343 76.3412 14.6164 76.3412H20.9339C21.1341 76.3412 21.3146 76.4619 21.3913 76.6469C21.4679 76.8318 21.4255 77.0448 21.284 77.1864L18.2619 80.2084C18.9879 80.4244 19.5854 80.849 20.0329 81.3302C20.6469 81.9904 21.0372 82.8222 21.0566 83.4749C21.3814 85.279 19.6848 87.365 17.2177 87.365C16.6623 87.365 15.9151 87.1437 15.301 86.72C14.6775 86.2899 14.1214 85.598 14.1214 84.6403C14.1214 84.3669 14.343 84.1452 14.6164 84.1452C14.8898 84.1452 15.1115 84.3669 15.1115 84.6403Z" fill="black"/>
<path fill-rule="evenodd" clip-rule="evenodd" d="M4.40522 17.5574V70.2555C1.66132 73.4095 0 77.5302 0 82.0389C0 91.9586 8.04144 100 17.9611 100C26.3812 100 33.4481 94.2059 35.3922 86.3873H63.0087L65.6259 96.8559C65.6731 97.0448 65.8266 97.1885 66.0182 97.2231C66.2098 97.2576 66.4038 97.1768 66.5141 97.0163L72.4493 88.3833L82.1607 84.6067C82.3476 84.534 82.4722 84.3557 82.4762 84.1552C82.4803 83.9547 82.3629 83.7716 82.1791 83.6915L80.939 83.1509V78.716C80.9561 78.7178 80.9736 78.7187 80.9912 78.7187H89.5675C95.0808 78.7187 99.5511 74.2536 99.5511 68.7445L99.5511 17.5574C99.5511 12.0483 95.0808 7.58323 89.5675 7.58323C86.8384 7.58595 83.6634 7.59179 80.8991 7.59179C80.485 3.33059 76.893 0 72.5231 0H31.4332C27.0633 0 23.4713 3.33063 23.0572 7.59186C20 7.59186 17.1207 7.58329 14.3888 7.58329C8.8755 7.58329 4.40522 12.0484 4.40522 17.5574ZM23.0174 8.57065C20 8.5 17.2127 8.57339 14.3888 8.57339C9.42139 8.57339 5.39532 12.5961 5.39532 17.5574V69.2053C8.63444 66.0334 13.0694 64.0779 17.9611 64.0779C19.7167 64.0779 21.4136 64.3298 23.0174 64.7994V54.6371H11.4692C11.1958 54.6371 10.9742 54.4154 10.9742 54.142C10.9742 53.8686 11.1958 53.647 11.4692 53.647H23.0174V45.8784H11.4692C11.1958 45.8784 10.9742 45.6567 10.9742 45.3833C10.9742 45.1099 11.1958 44.8883 11.4692 44.8883H23.0174V34.9301H14.3348C11.8741 34.9301 9.87936 32.9353 9.87936 30.4746L9.87936 18.6884C9.87936 16.2277 11.8741 14.2329 14.3348 14.2329H23.0174V8.57065ZM62.7612 85.3972H35.6087C35.8145 84.3093 35.9221 83.1867 35.9221 82.0389C35.9221 74.2408 30.9525 67.6034 24.0075 65.121V8.41584C24.0075 4.31471 27.3321 0.990099 31.4332 0.990099H72.5231C76.6242 0.990099 79.9489 4.31472 79.9489 8.41584V54.129L79.9487 54.142L79.9489 54.155V82.7193L66.7062 76.9469C68.02 76.1368 68.8957 74.6846 68.8957 73.0279V72.2068C68.8957 69.2124 66.4682 66.785 63.4738 66.785H40.4823C37.4879 66.785 35.0605 69.2124 35.0605 72.2068C35.0605 75.2012 37.4879 77.6286 40.4823 77.6286H60.8191L62.7612 85.3972ZM80.939 61.3107V54.6371H92.4869C92.7604 54.6371 92.982 54.4154 92.982 54.142C92.982 53.8686 92.7604 53.647 92.4869 53.647H80.939V45.8783H92.4869C92.7604 45.8783 92.982 45.6567 92.982 45.3833C92.982 45.1099 92.7604 44.8882 92.4869 44.8882H80.939V34.93H89.6214C92.0821 34.93 94.0768 32.9352 94.0768 30.4746V18.6883C94.0768 16.2276 92.0821 14.2329 89.6214 14.2329H80.939C80.939 13.7 80.9314 8.57333 80.9912 8.57333C84.3364 8.57333 89.5675 8.57333 89.5675 8.57333C94.5349 8.57333 98.561 12.5961 98.561 17.5574L98.561 68.7445C98.561 73.7058 94.5349 77.7286 89.5675 77.7286H80.9912C80.9736 77.7286 80.9561 77.7295 80.939 77.7313V72.1544H86.4653C89.4597 72.1544 91.8872 69.7269 91.8872 66.7325C91.8872 63.7382 89.4597 61.3107 86.4653 61.3107H80.939ZM80.939 15.223V33.9399H89.6214C91.5352 33.9399 93.0867 32.3884 93.0867 30.4746V18.6883C93.0867 16.7744 91.5352 15.223 89.6214 15.223H80.939ZM80.939 62.3008V71.1643H86.4653C88.9129 71.1643 90.8971 69.1801 90.8971 66.7325C90.8971 64.285 88.9129 62.3008 86.4653 62.3008H80.939ZM14.3348 15.223H23.0174V33.94H14.3348C12.4209 33.94 10.8695 32.3885 10.8695 30.4746L10.8695 18.6884C10.8695 16.7745 12.4209 15.223 14.3348 15.223ZM65.5318 76.4349C66.9115 75.8092 67.9055 74.6035 67.9055 73.0279V72.2068C67.9055 69.7592 65.9214 67.7751 63.4738 67.7751H40.4823C38.0347 67.7751 36.0506 69.7592 36.0506 72.2068C36.0506 74.6544 38.0347 76.6385 40.4823 76.6385H60.5715L60.1517 74.9592C60.106 74.7762 60.1682 74.5831 60.3122 74.4613C60.4562 74.3394 60.6569 74.31 60.8298 74.3853L65.5318 76.4349ZM66.3202 95.5508L61.3562 75.6949L80.6825 84.1192L71.9483 87.5158C71.8557 87.5518 71.7761 87.6149 71.7198 87.6967L66.3202 95.5508ZM17.9611 65.068C8.58826 65.068 0.990099 72.6661 0.990099 82.0389C0.990099 91.4117 8.58826 99.0099 17.9611 99.0099C27.3339 99.0099 34.932 91.4117 34.932 82.0389C34.932 72.6661 27.3339 65.068 17.9611 65.068Z" fill="black"/>
</svg>
