<svg width="100" height="101" viewBox="0 0 100 101" fill="none" xmlns="http://www.w3.org/2000/svg">
<path d="M70.355 72.8048C75.3403 72.8048 79.3816 68.7635 79.3816 63.7782C79.3816 58.793 75.3403 54.7516 70.355 54.7516C65.3698 54.7516 61.3284 58.793 61.3284 63.7782C61.3284 68.7635 65.3698 72.8048 70.355 72.8048Z" fill="#FFF7F1"/>
<path d="M28.9415 13.0881C28.9415 11.9745 29.8443 11.0717 30.9579 11.0717H55.1451C56.2587 11.0717 57.1614 11.9745 57.1614 13.0881V14.4822C57.1614 15.5958 56.2587 16.4986 55.1451 16.4986H30.9579C29.8443 16.4986 28.9415 15.5958 28.9415 14.4822V13.0881Z" fill="#FFF7F1"/>
<path d="M36.1502 82.7012C36.1502 92.5037 28.2037 100.45 18.4013 100.45C8.59881 100.45 0.652344 92.5037 0.652344 82.7012C0.652344 72.8988 8.59881 64.9523 18.4013 64.9523C28.2037 64.9523 36.1502 72.8988 36.1502 82.7012Z" fill="#FFF7F1"/>
<path fill-rule="evenodd" clip-rule="evenodd" d="M31.9581 10.5676C30.5661 10.5676 29.4376 11.6961 29.4376 13.0881V14.4823C29.4376 15.8743 30.5661 17.0027 31.9581 17.0027H56.1452C57.5372 17.0027 58.6657 15.8743 58.6657 14.4823V13.0881C58.6657 11.6961 57.5372 10.5676 56.1452 10.5676H31.9581ZM30.4458 13.0881C30.4458 12.2529 31.1229 11.5758 31.9581 11.5758H56.1452C56.9804 11.5758 57.6575 12.2529 57.6575 13.0881V14.4823C57.6575 15.3175 56.9804 15.9945 56.1452 15.9945H31.9581C31.1229 15.9945 30.4458 15.3175 30.4458 14.4823V13.0881Z" fill="black"/>
<path d="M61.9729 29.6393C62.2512 29.6461 62.4713 29.8772 62.4645 30.1556L62.3539 34.691C62.3471 34.9693 62.116 35.1894 61.8377 35.1826C61.5594 35.1759 61.3393 34.9447 61.346 34.6664L61.427 31.3476L47.095 44.9971C46.5109 45.5534 45.5931 45.5534 45.0091 44.9971L42.4225 42.5337C42.2279 42.3483 41.9219 42.3483 41.7272 42.5337L35.794 48.1845C35.5924 48.3765 35.2733 48.3687 35.0813 48.1671C34.8893 47.9655 34.8971 47.6464 35.0987 47.4544L41.032 41.8037C41.616 41.2475 42.5338 41.2474 43.1178 41.8037L45.7044 44.2671C45.8991 44.4525 46.205 44.4525 46.3997 44.2671L60.7317 30.6175L57.4129 30.5366C57.1345 30.5298 56.9144 30.2987 56.9212 30.0204C56.928 29.742 57.1591 29.5219 57.4375 29.5287L61.9729 29.6393Z" fill="black"/>
<path fill-rule="evenodd" clip-rule="evenodd" d="M61.8245 63.7782C61.8245 58.5146 66.0915 54.2476 71.3552 54.2476C76.6188 54.2476 80.8859 58.5146 80.8859 63.7782C80.8859 69.0419 76.6188 73.3089 71.3552 73.3089C66.0915 73.3089 61.8245 69.0419 61.8245 63.7782ZM71.326 55.2558C66.6326 55.2715 62.8327 59.0811 62.8327 63.7782C62.8327 65.9559 63.6495 67.9428 64.9934 69.4494L71.326 64.0214V55.2558ZM72.0166 64.7573L65.7099 70.163C67.2133 71.4933 69.1899 72.3007 71.3552 72.3007C75.7309 72.3007 79.3364 69.003 79.822 64.7573H72.0166ZM72.3342 55.3113C76.5705 55.7958 79.8631 59.3865 79.8776 63.7492H72.3342V55.3113Z" fill="black"/>
<path d="M16.8923 80.0659C16.8923 79.4311 17.1325 78.789 17.5312 78.3105C17.9277 77.8347 18.4557 77.5473 19.0331 77.5473C20.0027 77.5473 20.5715 77.9456 20.8892 78.4546C21.2234 78.9902 21.3118 79.7043 21.1837 80.3449C21.0181 81.1727 20.4183 82.228 19.473 83.5513C18.8067 84.4842 18.0003 85.5089 17.1106 86.6396C16.7496 87.0983 16.3749 87.5744 15.9903 88.0689C15.8721 88.2209 15.8508 88.4269 15.9354 88.5999C16.02 88.7728 16.1957 88.8825 16.3882 88.8825H22.0558C22.3342 88.8825 22.5599 88.6568 22.5599 88.3784C22.5599 88.1 22.3342 87.8743 22.0558 87.8743H17.4223C17.5789 87.6749 17.7339 87.4779 17.887 87.2834C18.7836 86.1439 19.6126 85.0905 20.2934 84.1373C21.2374 82.8158 21.96 81.6041 22.1723 80.5426C22.3405 79.7013 22.24 78.715 21.7445 77.9209C21.2323 77.1001 20.3305 76.5392 19.0331 76.5392C18.0992 76.5392 17.3047 77.0074 16.7567 77.6651C16.2107 78.3202 15.8841 79.1894 15.8841 80.0659C15.8841 80.3443 16.1098 80.57 16.3882 80.57C16.6666 80.57 16.8923 80.3443 16.8923 80.0659Z" fill="black"/>
<path fill-rule="evenodd" clip-rule="evenodd" d="M67.3486 1.1026C67.254 1.00764 67.1255 0.954269 66.9915 0.954269H20.0342C18.6422 0.954269 17.5138 2.08271 17.5138 3.47471L17.5138 20.1966L4.51437 22.8671C3.16596 23.1441 2.2639 24.4554 2.48775 25.8131L9.35415 67.4599C4.41012 70.7257 1.14844 76.3326 1.14844 82.7013C1.14844 92.7821 9.32059 100.954 19.4014 100.954C27.0241 100.954 33.5554 96.2817 36.2875 89.6446H80.5033C81.8953 89.6446 83.0238 88.5161 83.0238 87.1241V81.2102L86.8645 82.1172C87.3976 82.2431 87.9256 82.1894 88.3881 81.9962L95.5635 89.1717C95.7604 89.3685 96.0796 89.3685 96.2764 89.1717C96.4733 88.9748 96.4733 88.6556 96.2764 88.4588L89.2301 81.4125C89.5524 81.0692 89.7803 80.6278 89.8638 80.1213L98.8166 25.8197C99.041 24.4587 98.1342 23.1451 96.7817 22.872L83.1119 20.1112C83.0823 20.1052 83.0528 20.102 83.0238 20.1013V17.0463C83.0238 16.9129 82.9709 16.785 82.8768 16.6905L67.3486 1.1026ZM17.5138 64.5447C14.9 64.8132 12.4497 65.6333 10.2811 66.8866L3.47846 25.6263C3.34415 24.8117 3.88539 24.0249 4.69443 23.8587L17.5138 21.2252L17.5138 64.5447ZM19.4014 64.4482C19.1066 64.4482 18.8134 64.4552 18.522 64.4691L18.522 3.47471C18.522 2.63951 19.199 1.96244 20.0342 1.96244H66.4874V15.0299C66.4874 16.4219 67.6158 17.5504 69.0078 17.5504H82.0156V51.1167C79.1357 48.6895 75.4163 47.2269 71.3552 47.2269C66.9524 47.2269 62.9512 48.9459 59.9861 51.7494C59.9469 51.7397 59.906 51.7345 59.8638 51.7345H32.0352C31.7568 51.7345 31.5312 51.5088 31.5312 51.2304V27.1973C31.5312 26.9189 31.3055 26.6933 31.0271 26.6933C30.7487 26.6933 30.523 26.9189 30.523 27.1973V51.2304C30.523 52.0656 31.2 52.7427 32.0352 52.7427H59.0195C56.6673 55.3702 55.1422 58.7538 54.8537 62.484H31.0271C30.7487 62.484 30.523 62.7096 30.523 62.988C30.523 63.2664 30.7487 63.4921 31.0271 63.4921H54.8063C54.8047 63.5873 54.8039 63.6827 54.8039 63.7782C54.8039 65.6014 55.0986 67.3558 55.6432 68.9962H31.6349C31.5823 68.9962 31.5315 69.0043 31.4838 69.0193C28.265 66.1746 24.0348 64.4482 19.4014 64.4482ZM36.1826 75.5085C35.2997 73.4514 34.0497 71.5892 32.5149 70.0044H56.0148C56.8593 72.083 58.114 73.9512 59.6784 75.5085H36.1826ZM37.6545 82.7013C37.6545 80.5304 37.2755 78.448 36.5801 76.5167H60.7867C63.6536 78.8978 67.3372 80.3296 71.3552 80.3296C75.4163 80.3296 79.1357 78.8669 82.0156 76.4398V87.1241C82.0156 87.9593 81.3385 88.6364 80.5033 88.6364H36.6678C37.3073 86.7757 37.6545 84.779 37.6545 82.7013ZM83.1785 75.3608L88.5092 80.6915C88.6939 80.4882 88.8244 80.2297 88.873 79.9345L97.8259 25.6328C97.9605 24.8163 97.4164 24.0281 96.605 23.8642L83.0238 21.1214V52.0398C86.0395 55.0377 87.9065 59.1899 87.9065 63.7782C87.9065 68.2875 86.1032 72.3757 83.1785 75.3608ZM83.0238 76.6319L87.5583 81.1665C87.4008 81.1812 87.2375 81.1708 87.0735 81.132L83.0238 80.1756V76.6319ZM81.306 16.5422H69.0078C68.1726 16.5422 67.4956 15.8651 67.4956 15.0299V2.67864L81.306 16.5422ZM55.812 63.7782C55.812 55.194 62.7709 48.2351 71.3552 48.2351C79.9394 48.2351 86.8983 55.194 86.8983 63.7782C86.8983 72.3625 79.9394 79.3214 71.3552 79.3214C62.7709 79.3214 55.812 72.3625 55.812 63.7782ZM19.4014 65.4564C9.87739 65.4564 2.15661 73.1772 2.15661 82.7013C2.15661 92.2253 9.87739 99.9461 19.4014 99.9461C28.9255 99.9461 36.6463 92.2253 36.6463 82.7013C36.6463 73.1772 28.9255 65.4564 19.4014 65.4564Z" fill="black"/>
</svg>
