<svg width="110" height="112" viewBox="0 0 110 112" fill="none" xmlns="http://www.w3.org/2000/svg">
<path d="M67.0818 12.5468C67.0818 18.9239 61.9122 24.0936 55.5351 24.0936C49.158 24.0936 43.9883 18.9239 43.9883 12.5468C43.9883 6.16967 49.158 1 55.5351 1C61.9122 1 67.0818 6.16967 67.0818 12.5468Z" fill="#FFF7F1"/>
<path d="M67.0818 56.5345C67.0818 62.9116 61.9122 68.0813 55.5351 68.0813C49.158 68.0813 43.9883 62.9116 43.9883 56.5345C43.9883 50.1574 49.158 44.9877 55.5351 44.9877C61.9122 44.9877 67.0818 50.1574 67.0818 56.5345Z" fill="#FFF7F1"/>
<path d="M67.0818 99.4226C67.0818 105.8 61.9122 110.969 55.5351 110.969C49.158 110.969 43.9883 105.8 43.9883 99.4226C43.9883 93.0454 49.158 87.8758 55.5351 87.8758C61.9122 87.8758 67.0818 93.0454 67.0818 99.4226Z" fill="#FFF7F1"/>
<path d="M56.8844 8.92562C56.8844 7.9459 55.6998 7.45525 55.0071 8.14802L52.3983 10.7568C52.1836 10.9715 52.1836 11.3196 52.3983 11.5344C52.613 11.7491 52.9612 11.7491 53.1759 11.5344L55.7847 8.92562V17.3535C55.7847 17.6572 56.0308 17.9034 56.3345 17.9034C56.6382 17.9034 56.8844 17.6572 56.8844 17.3535V8.92562Z" fill="black"/>
<path fill-rule="evenodd" clip-rule="evenodd" d="M43.4397 12.5468C43.4397 5.86604 48.8556 0.450195 55.5363 0.450195C62.2171 0.450195 67.633 5.86604 67.633 12.5468C67.633 19.2276 62.2171 24.6434 55.5363 24.6434C48.8556 24.6434 43.4397 19.2276 43.4397 12.5468ZM55.5363 1.54989C49.4629 1.54989 44.5394 6.47338 44.5394 12.5468C44.5394 18.6203 49.4629 23.5438 55.5363 23.5438C61.6098 23.5438 66.5333 18.6203 66.5333 12.5468C66.5333 6.47338 61.6098 1.54989 55.5363 1.54989Z" fill="black"/>
<path d="M53.1823 53.3241C53.1823 52.1584 54.1273 51.2134 55.293 51.2134H55.4704C56.734 51.2134 57.7585 52.2378 57.7585 53.5015V53.6611C57.7585 54.4028 57.4221 55.1045 56.844 55.5691L52.5597 59.0119C51.7503 59.6623 52.2102 60.9688 53.2485 60.9688H58.7813C59.085 60.9688 59.3311 60.7226 59.3311 60.4189C59.3311 60.1152 59.085 59.8691 58.7813 59.8691H53.2485L57.5328 56.4264C58.3707 55.753 58.8581 54.7361 58.8581 53.6611V53.5015C58.8581 51.6305 57.3414 50.1137 55.4704 50.1137H55.293C53.52 50.1137 52.0826 51.5511 52.0826 53.3241C52.0826 53.6278 52.3288 53.874 52.6325 53.874C52.9361 53.874 53.1823 53.6278 53.1823 53.3241Z" fill="black"/>
<path fill-rule="evenodd" clip-rule="evenodd" d="M43.4397 56.5346C43.4397 49.8538 48.8556 44.4379 55.5363 44.4379C62.2171 44.4379 67.633 49.8538 67.633 56.5346C67.633 63.2153 62.2171 68.6312 55.5363 68.6312C48.8556 68.6312 43.4397 63.2153 43.4397 56.5346ZM55.5363 45.5376C49.4629 45.5376 44.5394 50.4611 44.5394 56.5346C44.5394 62.608 49.4629 67.5315 55.5363 67.5315C61.6098 67.5315 66.5333 62.608 66.5333 56.5346C66.5333 50.4611 61.6098 45.5376 55.5363 45.5376Z" fill="black"/>
<path d="M52.7871 94.4563H57.2214C58.5577 94.4563 59.5449 95.6407 59.5449 96.9769C59.5449 97.8221 59.1499 98.6066 58.5214 99.069C59.1538 99.6309 59.5449 100.488 59.5449 101.411C59.5449 103.019 58.3591 104.424 56.7779 104.424H52.7871C52.4834 104.424 52.2373 104.178 52.2373 103.875C52.2373 103.571 52.4834 103.325 52.7871 103.325H56.7779C57.6457 103.325 58.4452 102.524 58.4452 101.411C58.4452 100.298 57.6457 99.4975 56.7779 99.4975H54.4426C54.1389 99.4975 53.8927 99.2513 53.8927 98.9477C53.8927 98.644 54.1389 98.3978 54.4426 98.3978H57.2214C57.8442 98.3978 58.4452 97.8176 58.4452 96.9769C58.4452 96.1362 57.8442 95.556 57.2214 95.556H52.7871C52.4834 95.556 52.2373 95.3098 52.2373 95.0061C52.2373 94.7024 52.4834 94.4563 52.7871 94.4563Z" fill="black"/>
<path fill-rule="evenodd" clip-rule="evenodd" d="M43.4397 99.4226C43.4397 92.7418 48.8556 87.326 55.5363 87.326C62.2171 87.326 67.633 92.7418 67.633 99.4226C67.633 106.103 62.2171 111.519 55.5363 111.519C48.8556 111.519 43.4397 106.103 43.4397 99.4226ZM55.5363 88.4257C49.4629 88.4257 44.5394 93.3492 44.5394 99.4226C44.5394 105.496 49.4629 110.42 55.5363 110.42C61.6098 110.42 66.5333 105.496 66.5333 99.4226C66.5333 93.3492 61.6098 88.4257 55.5363 88.4257Z" fill="black"/>
<path d="M72.0317 13.0967C72.0317 12.793 72.2779 12.5468 72.5816 12.5468H87.1525C99.4512 12.5468 109.421 22.5169 109.421 34.8156C109.421 47.1143 99.4512 57.0844 87.1525 57.0844H72.5816C72.2779 57.0844 72.0317 56.8382 72.0317 56.5346C72.0317 56.2309 72.2779 55.9847 72.5816 55.9847H87.1525C98.8439 55.9847 108.322 46.507 108.322 34.8156C108.322 23.1242 98.8439 13.6465 87.1525 13.6465H72.5816C72.2779 13.6465 72.0317 13.4003 72.0317 13.0967Z" fill="black"/>
<path d="M39.0302 55.9847C39.0302 55.681 38.784 55.4349 38.4804 55.4349H23.9094C11.6107 55.4349 1.64062 65.4049 1.64062 77.7037C1.64062 90.0024 11.6107 99.9725 23.9094 99.9725H38.4804C38.784 99.9725 39.0302 99.7263 39.0302 99.4226C39.0302 99.1189 38.784 98.8728 38.4804 98.8728H23.9094C12.218 98.8728 2.74032 89.395 2.74032 77.7037C2.74032 66.0123 12.218 56.5346 23.9094 56.5346H38.4804C38.784 56.5346 39.0302 56.2884 39.0302 55.9847Z" fill="black"/>
</svg>
