<svg width="481" height="67" viewBox="0 0 481 67" fill="none" xmlns="http://www.w3.org/2000/svg">
<path d="M55.3243 11.498L53.5905 15.1482H54.8072V21.0494V21.53L54.9897 47.2335C54.9484 47.1886 54.9117 47.1397 54.8802 47.0875L53.9494 45.8708L53.0065 44.654L51.1814 42.2753L32.7478 18.1962H30.3144L31.9144 20.2829V32.9916L21.4809 18.1962H19.236L20.2642 19.6927L17.0033 28.4593C15.1214 33.6507 12.8806 39.6796 10.2809 46.5461C10.1234 47.1268 9.85258 47.6706 9.48389 48.1461C9.28753 48.307 9.06098 48.427 8.81754 48.4991C8.57411 48.5712 8.31873 48.5939 8.06641 48.5658V48.7058H11.4793V48.5658C10.8588 48.5658 10.5485 48.3164 10.5485 47.8175C10.5609 47.4817 10.6373 47.1513 10.7736 46.8442L14.0892 37.9863H33.198L40.7904 48.7179H43.0353L32.4984 33.8069V21.0312L53.5601 48.5415H55.7076V47.5438L55.7806 21.5422L55.8779 15.1543H56.9365L55.3243 11.498ZM32.8148 37.4145H14.2717L20.6413 20.2159L32.8148 37.4145Z" fill="white"/>
<path d="M66.7743 66.7743H0V0H46.9294V0.882132H0.882139V65.8922H65.8922V19.1757H66.7743V66.7743Z" fill="white"/>
<path d="M110.943 35.5521C110.582 35.5552 110.231 35.4422 109.939 35.2297C109.667 34.9902 109.458 34.6872 109.331 34.3476C105.681 25.7635 102.347 17.7757 99.3415 10.6213L99.305 10.5239H96.6282V10.8889H96.7803C96.9708 10.862 97.1651 10.8914 97.3392 10.9735C97.5133 11.0557 97.6595 11.187 97.7597 11.3513L97.8449 11.4973L94.0548 20.203C92.3818 24.1148 90.3437 28.781 88.0015 34.0738C87.8587 34.5053 87.6289 34.9028 87.3262 35.2419C86.9787 35.4677 86.5646 35.5686 86.1521 35.5278H86V35.9354H89.3704V35.5278H89.2183C88.5308 35.5278 88.5308 35.2297 88.5308 35.1019C88.5451 34.8602 88.6093 34.6241 88.7194 34.4084L91.6639 27.7164H104.64L107.427 34.3111C107.536 34.5249 107.6 34.7589 107.615 34.9985C107.615 35.2175 107.536 35.5035 106.843 35.5339H106.684V35.9354H111.065V35.5339L110.943 35.5521ZM104.354 26.9985H91.9559L98.2525 12.5133L104.354 26.9985Z" fill="white"/>
<path d="M133.222 12.1605V34.2989C133.222 35.1506 133.581 35.5522 134.348 35.5522H134.5V35.9598H131.878L131.835 35.8989L115.154 12.6715V34.2989C115.16 34.6318 115.259 34.9564 115.44 35.2358C115.552 35.3526 115.689 35.442 115.841 35.4968C115.993 35.5517 116.155 35.5707 116.316 35.5522H116.468V35.9598H113.098V35.5522H113.25C114.016 35.5522 114.369 35.1506 114.369 34.2989V12.1605C114.369 11.3088 114.016 10.9133 113.25 10.9133H113.098V10.4996H115.714L115.762 10.5666L132.444 33.794V12.1605C132.439 11.8284 132.338 11.5048 132.152 11.2297C132.042 11.1114 131.906 11.021 131.755 10.966C131.604 10.9109 131.441 10.8929 131.282 10.9133H131.13V10.4996H134.5V10.889H134.348C133.581 10.889 133.222 11.3088 133.222 12.1605Z" fill="white"/>
<path d="M161.437 35.5521C161.077 35.5539 160.725 35.441 160.433 35.2297C160.161 34.9902 159.952 34.6872 159.825 34.3476C156.175 25.7635 152.841 17.7757 149.835 10.6213L149.799 10.5239H147.116V10.8889H147.268C147.459 10.862 147.653 10.8914 147.827 10.9735C148.001 11.0557 148.147 11.187 148.248 11.3513L148.333 11.4973L144.585 20.2274C142.912 24.1392 140.874 28.8053 138.502 34.0981C138.359 34.5296 138.129 34.9272 137.826 35.2662C137.479 35.4921 137.065 35.5929 136.652 35.5521H136.5V35.9597H139.901V35.5521H139.749C139.061 35.5521 139.061 35.254 139.061 35.1263C139.075 34.8846 139.14 34.6484 139.25 34.4327L142.194 27.7407H155.171L157.957 34.3354C158.069 34.5481 158.134 34.7827 158.146 35.0229C158.146 35.2419 158.067 35.5278 157.373 35.5582H157.227V35.9597H161.595V35.5582L161.437 35.5521ZM154.873 26.9985H142.486L148.783 12.5133L154.873 26.9985Z" fill="white"/>
<path d="M181.84 29.6997C181.846 30.7741 181.549 31.8284 180.983 32.7415C180.376 33.7049 179.515 34.4818 178.494 34.9864C177.065 35.6556 175.503 35.9925 173.926 35.972C172.991 35.9829 172.057 35.9178 171.133 35.7773C170.394 35.6482 169.671 35.4444 168.973 35.1689L166.461 34.013C166.272 33.9085 166.066 33.8404 165.853 33.8123C165.554 33.8123 165.488 34.3537 165.488 34.81C165.482 35.1241 165.521 35.4375 165.603 35.7408L165.658 35.9294H165.22L163.602 29.8457L163.997 29.724L164.046 29.8579C164.435 30.8903 165.077 31.8086 165.913 32.5286C166.868 33.3772 167.966 34.0488 169.156 34.5119C170.379 34.9896 171.682 35.2311 172.995 35.2237C174.309 35.2529 175.616 35.0128 176.834 34.518C177.792 34.1274 178.624 33.4788 179.237 32.6442C179.761 31.9088 180.044 31.0287 180.046 30.1256C180.078 29.0191 179.709 27.9384 179.005 27.0837C178.298 26.2492 177.429 25.5664 176.45 25.0761C175.165 24.4506 173.847 23.8941 172.502 23.4092L170.677 22.6913C169.604 22.2488 168.583 21.6876 167.635 21.0183C166.504 20.225 165.704 19.0424 165.39 17.6966C165.343 17.3986 165.315 17.0979 165.305 16.7962C165.335 15.3501 165.886 13.9634 166.856 12.8905C167.561 12.055 168.477 11.4245 169.509 11.0654C170.649 10.6601 171.851 10.4543 173.062 10.4571C174.165 10.4405 175.263 10.6282 176.298 11.0107C177.33 11.4252 178.295 11.9888 179.164 12.6837C179.256 12.7811 179.378 12.8453 179.51 12.8662C179.608 12.8662 179.669 12.7019 179.699 12.5681C179.765 12.3071 179.803 12.04 179.815 11.7711C179.815 11.4974 179.815 11.327 179.815 11.2601V11.108H180.271L180.441 16.9057H180.04V16.7841C179.775 15.2139 178.994 13.7771 177.819 12.7019C176.681 11.6981 175.027 11.1932 172.903 11.1932C172.081 11.1912 171.268 11.3655 170.519 11.7042C169.782 12.0226 169.115 12.4813 168.554 13.0548C168.1 13.4793 167.736 13.9903 167.484 14.5576C167.231 15.125 167.094 15.7372 167.081 16.3582C167.083 17.0305 167.248 17.6922 167.562 18.2867C167.914 18.9302 168.409 19.4839 169.01 19.905C169.635 20.3655 170.308 20.7571 171.018 21.0731C171.754 21.4077 172.782 21.8274 174.059 22.3263C175.641 22.9347 176.937 23.47 177.91 23.9506C178.888 24.4315 179.759 25.1039 180.472 25.9278C181.207 26.8068 181.657 27.8892 181.761 29.0305C181.806 29.251 181.832 29.4748 181.84 29.6997Z" fill="white"/>
<path d="M226.896 35.5522C226.545 35.5459 226.205 35.4311 225.923 35.2237C225.661 34.9808 225.463 34.6781 225.345 34.3416C221.725 25.7575 218.361 17.7697 215.355 10.6153L215.319 10.5179H212.636V10.889H212.788C212.979 10.8621 213.173 10.8915 213.347 10.9736C213.521 11.0558 213.667 11.1871 213.768 11.3514L213.853 11.4974L210.063 20.2031C208.383 24.1332 206.345 28.7994 204.009 34.0739C203.867 34.5054 203.637 34.9029 203.334 35.242C202.986 35.4678 202.572 35.5687 202.16 35.5279H202.008V35.9355H205.378V35.5279H205.226C204.539 35.5279 204.539 35.2298 204.539 35.102C204.553 34.8603 204.617 34.6242 204.727 34.4085L207.672 27.7165H220.648L223.434 34.3112C223.547 34.5239 223.611 34.7585 223.623 34.9986C223.623 35.2176 223.544 35.5036 222.85 35.534H222.704V35.9355H227.073V35.534L226.896 35.5522ZM220.332 26.9986H207.933L214.23 12.5134L220.332 26.9986Z" fill="white"/>
<path d="M246.542 29.6997C246.548 30.7741 246.25 31.8284 245.684 32.7415C245.077 33.7049 244.216 34.4818 243.196 34.9864C241.767 35.655 240.205 35.9919 238.627 35.9719C237.692 35.9829 236.759 35.9178 235.835 35.7773C235.096 35.649 234.372 35.4451 233.675 35.1689L231.162 34.013C230.974 33.9093 230.767 33.8412 230.554 33.8122C230.25 33.8122 230.189 34.3537 230.189 34.81C230.184 35.1241 230.223 35.4374 230.304 35.7408L230.353 35.9294H229.921L228.297 29.8457L228.698 29.724L228.747 29.8579C229.134 30.8914 229.777 31.8102 230.615 32.5286C231.569 33.3772 232.667 34.0488 233.857 34.5119C235.086 35.0051 236.397 35.2591 237.72 35.2602C239.035 35.2894 240.341 35.0492 241.559 34.5545C242.518 34.1639 243.35 33.5153 243.962 32.6807C244.487 31.9453 244.769 31.0652 244.771 30.162C244.801 29.0561 244.432 27.9763 243.731 27.1202C243.022 26.2842 242.151 25.6012 241.17 25.1126C239.887 24.4858 238.571 23.9294 237.228 23.4457L235.403 22.7278C234.329 22.2853 233.309 21.7241 232.361 21.0548C231.229 20.2615 230.43 19.0789 230.116 17.7331C230.069 17.435 230.041 17.1343 230.031 16.8327C230.061 15.3866 230.612 13.9999 231.582 12.927C232.286 12.0915 233.203 11.461 234.235 11.1019C235.375 10.6966 236.577 10.4908 237.787 10.4936C238.891 10.477 239.988 10.6647 241.024 11.0472C242.056 11.4616 243.021 12.0253 243.889 12.7202C243.982 12.8176 244.104 12.8818 244.236 12.9027C244.333 12.9027 244.394 12.7384 244.425 12.6046C244.487 12.343 244.526 12.0762 244.54 11.8076C244.54 11.5318 244.54 11.3615 244.54 11.2966V11.1445H245.003L245.167 16.9422H244.784V16.8206C244.521 15.2496 243.739 13.8121 242.563 12.7384C241.432 11.7346 239.777 11.2297 237.654 11.2297C236.829 11.2283 236.014 11.4025 235.263 11.7407C234.528 12.0591 233.863 12.5179 233.304 13.0913C232.849 13.5149 232.485 14.0257 232.232 14.5933C231.979 15.1608 231.843 15.7735 231.831 16.3947C231.833 17.067 231.998 17.7287 232.312 18.3232C232.664 18.9667 233.16 19.5204 233.76 19.9415C234.383 20.402 235.054 20.7936 235.762 21.1096C236.504 21.4442 237.532 21.8639 238.803 22.3628C240.385 22.9712 241.681 23.5065 242.654 23.9871C243.631 24.4666 244.5 25.1392 245.209 25.9643C245.95 26.8404 246.4 27.9243 246.499 29.067C246.533 29.2761 246.548 29.4879 246.542 29.6997Z" fill="white"/>
<path d="M202.336 12.4768L201.916 12.5985L201.862 12.4707C201.698 12.0703 201.408 11.7344 201.036 11.5147C200.663 11.2949 200.229 11.2033 199.799 11.254H194.367V34.3172C194.367 35.1689 194.744 35.5704 195.547 35.5704H195.699V35.978H191.148V35.5704H191.3C191.47 35.593 191.643 35.5762 191.806 35.5213C191.968 35.4665 192.116 35.375 192.237 35.2541C192.417 34.9719 192.516 34.6457 192.523 34.3111V11.254H187.967C187.536 11.204 187.102 11.2958 186.728 11.5154C186.355 11.735 186.063 12.0704 185.898 12.4707L185.843 12.5985L185.43 12.4768L186.239 10.4996H201.521L202.336 12.4768Z" fill="white"/>
<path d="M252.375 12.1726V34.2989C252.389 34.6312 252.499 34.9523 252.691 35.2237C252.802 35.3407 252.938 35.4303 253.089 35.4853C253.24 35.5402 253.402 35.559 253.561 35.54H253.714V35.9476H249.352V35.54H249.504C249.663 35.5585 249.825 35.5395 249.976 35.4846C250.127 35.4297 250.263 35.3403 250.374 35.2237C250.56 34.9443 250.662 34.6167 250.666 34.2807V12.1605C250.661 11.8284 250.56 11.5048 250.374 11.2297C250.264 11.1118 250.128 11.0217 249.977 10.9667C249.825 10.9117 249.663 10.8934 249.504 10.9133H249.352V10.4996H253.714V10.889H253.561C253.402 10.8685 253.239 10.8866 253.088 10.9416C252.937 10.9966 252.801 11.0871 252.691 11.2053C252.491 11.4884 252.38 11.8256 252.375 12.1726Z" fill="white"/>
<path d="M281.426 10.4997V10.8891H281.286C280.921 10.8753 280.558 10.9417 280.221 11.0838C279.954 11.2922 279.734 11.5557 279.576 11.8564L270.287 26.3416V34.2503C270.293 34.5832 270.392 34.9078 270.573 35.1872C270.684 35.304 270.822 35.3934 270.974 35.4483C271.126 35.5031 271.288 35.5221 271.449 35.5036H271.601V35.9112H267.233V35.5036H267.385C267.544 35.5216 267.706 35.5024 267.857 35.4475C268.008 35.3926 268.144 35.3035 268.255 35.1872C268.437 34.906 268.536 34.5792 268.541 34.2443V26.7066L259.294 12.264C259.059 11.8725 258.763 11.5213 258.418 11.2237C258.027 11.015 257.588 10.9142 257.146 10.9317H257V10.524H262.08V10.8891H261.934C261.615 10.8902 261.298 10.9352 260.991 11.0229C260.808 11.0898 260.808 11.1689 260.808 11.2054C260.836 11.4279 260.924 11.6384 261.064 11.8138L263.449 15.5552C266.278 19.9659 268.431 23.3423 269.849 25.5933L278.974 11.3149C279.022 11.2413 279.053 11.1583 279.065 11.0716C279.065 11.0351 278.95 10.9377 278.421 10.9377L278.031 10.883V10.4875L281.426 10.4997Z" fill="white"/>
<path d="M301.97 35.5521C301.61 35.5539 301.258 35.441 300.967 35.2297C300.705 34.9868 300.507 34.6841 300.389 34.3476C296.769 25.7635 293.405 17.7757 290.399 10.6213L290.363 10.5239H287.68V10.8889H287.832C288.023 10.862 288.217 10.8914 288.391 10.9735C288.565 11.0557 288.711 11.187 288.811 11.3513L288.897 11.4973L285.106 20.203C283.433 24.1148 281.395 28.781 279.053 34.0738C278.91 34.5053 278.681 34.9028 278.378 35.2419C278.03 35.4677 277.616 35.5686 277.204 35.5278H277.027V35.9354H280.398V35.5278H280.246C279.558 35.5278 279.558 35.2297 279.558 35.1019C279.572 34.8602 279.637 34.6241 279.747 34.4084L282.691 27.7164H295.668L298.454 34.3111C298.563 34.5249 298.628 34.7589 298.643 34.9985C298.643 35.2175 298.564 35.5035 297.87 35.5339H297.712V35.9354H302.08V35.5339L301.97 35.5521ZM295.406 26.9985H282.983L289.28 12.5133L295.406 26.9985Z" fill="white"/>
<path d="M334.336 12.1608V34.2993C334.336 35.1571 334.695 35.5525 335.461 35.5525H335.613V35.9601H332.991L332.949 35.8993L316.267 12.6719V34.2993C316.272 34.6323 316.371 34.9571 316.553 35.2362C316.665 35.353 316.802 35.4423 316.954 35.4972C317.106 35.5521 317.269 35.571 317.429 35.5525H317.581V35.9601H314.211V35.5525H314.363C315.13 35.5525 315.482 35.1571 315.482 34.2993V12.1608C315.482 11.3091 315.13 10.9137 314.363 10.9137H314.211V10.5H316.827L316.876 10.5669L333.557 33.7944V12.1608C333.552 11.8287 333.451 11.5052 333.265 11.23C333.155 11.1134 333.018 11.024 332.867 10.9691C332.716 10.9142 332.555 10.8952 332.395 10.9137H332.261V10.5H335.632V10.8894H335.479C334.695 10.8894 334.336 11.3091 334.336 12.1608Z" fill="white"/>
<path d="M359.032 33.9708L358.07 35.9601H341.645V35.5525H341.797C341.984 35.5756 342.175 35.5582 342.355 35.5015C342.536 35.4449 342.702 35.3502 342.843 35.224C343.052 34.9556 343.169 34.6272 343.178 34.2871V12.1608C343.167 11.8249 343.05 11.501 342.843 11.2361C342.7 11.1129 342.534 11.0207 342.354 10.9652C342.174 10.9097 341.984 10.8922 341.797 10.9137H341.645V10.5H356.72L357.626 12.4772L357.188 12.5928L357.134 12.4772C356.756 11.6437 355.996 11.2605 354.81 11.2605H346.292C346.006 11.2319 345.716 11.2609 345.441 11.3456C345.388 11.3642 345.341 11.3965 345.304 11.4393C345.268 11.482 345.244 11.5337 345.234 11.589C345.198 11.8224 345.184 12.0586 345.191 12.2947V20.7327H351.676C351.824 20.7201 351.97 20.6978 352.115 20.6658C352.334 20.5746 352.473 20.2825 352.504 19.7958V19.6559H352.948V22.5092H352.51V22.3631C352.48 21.8825 352.34 21.5905 352.096 21.4932C351.897 21.4437 351.693 21.4232 351.488 21.4324H345.21V34.208C345.202 34.4461 345.217 34.6843 345.252 34.9198C345.26 34.9727 345.282 35.0224 345.316 35.0632C345.351 35.1041 345.396 35.1345 345.447 35.151C345.617 35.2193 345.799 35.2504 345.982 35.2423H356.154C357.371 35.2423 358.101 34.8407 358.478 34.0255L358.527 33.916L359.032 33.9708Z" fill="white"/>
<path d="M384.985 12.1608V34.3054C384.985 35.151 385.356 35.5221 386.153 35.5221H386.305V35.9358H381.803V35.5221H381.955C382.12 35.5421 382.288 35.524 382.445 35.4692C382.602 35.4144 382.744 35.3242 382.861 35.2057C383.05 34.9294 383.154 34.6036 383.159 34.2688V13.4931L374.393 34.2506L373.602 35.9601H373.249L363.667 13.2741V34.3054C363.669 34.637 363.773 34.96 363.965 35.2301C364.081 35.3497 364.224 35.4406 364.381 35.4955C364.539 35.5505 364.707 35.5679 364.872 35.5464H365.024V35.9601H361.55V35.5464H361.702C362.493 35.5464 362.864 35.151 362.864 34.3297V11.6802C362.631 11.4397 362.352 11.2477 362.044 11.1151C361.736 10.9825 361.405 10.912 361.07 10.9076H360.93V10.5182H366.222V10.8893H366.064C365.733 10.8439 365.396 10.9242 365.121 11.1144C365.072 11.1648 365.035 11.225 365.01 11.2911C364.986 11.3571 364.976 11.4275 364.981 11.4977C364.989 11.6775 365.028 11.8545 365.097 12.0209L374.01 33.1738L383.068 11.6254C382.965 11.1327 382.6 10.8893 381.955 10.8893H381.803V10.4878H386.305V10.8893H386.153C385.356 10.8893 384.985 11.3091 384.985 12.1608Z" fill="white"/>
<path d="M405.345 12.4772L404.925 12.5989L404.876 12.4711C404.708 12.0687 404.414 11.7321 404.037 11.5125C403.66 11.2929 403.222 11.2022 402.789 11.2544H397.314V34.3176C397.314 35.1693 397.691 35.5708 398.5 35.5708H398.653V35.9784H394.072V35.5708H394.224C394.395 35.5943 394.57 35.578 394.735 35.5232C394.9 35.4683 395.049 35.3764 395.173 35.2544C395.355 34.9732 395.454 34.6464 395.459 34.3115V11.2544H390.872C390.44 11.2036 390.003 11.2949 389.628 11.5144C389.252 11.734 388.958 12.0698 388.791 12.4711L388.736 12.5989L388.316 12.4772L389.132 10.5H404.517L405.345 12.4772Z" fill="white"/>
<path d="M423.426 29.7003C423.434 30.775 423.137 31.8298 422.569 32.7421C421.964 33.7087 421.102 34.4881 420.08 34.9931C418.653 35.6615 417.093 35.9985 415.518 35.9786C414.583 35.9898 413.649 35.9247 412.725 35.7839C411.987 35.6536 411.263 35.4498 410.565 35.1756L408.047 34.0197C407.858 33.9151 407.652 33.847 407.438 33.8189C407.14 33.8189 407.073 34.3604 407.073 34.8166C407.072 35.1306 407.111 35.4434 407.189 35.7474L407.244 35.936H406.806L405.188 29.8524L405.583 29.7307L405.632 29.8645C406.021 30.8984 406.666 31.8171 407.505 32.5353C408.457 33.3851 409.553 34.0569 410.742 34.5185C411.971 35.0098 413.282 35.2617 414.605 35.2607C415.92 35.2929 417.227 35.0527 418.444 34.555C419.415 34.1738 420.258 33.5265 420.877 32.6873C421.404 31.9535 421.688 31.0723 421.686 30.1687C421.719 29.0623 421.349 27.9816 420.646 27.1269C419.94 26.291 419.07 25.6079 418.091 25.1193C416.805 24.4937 415.488 23.9373 414.143 23.4523L412.318 22.7345C411.245 22.2916 410.224 21.7304 409.276 21.0615C408.144 20.2682 407.345 19.0855 407.031 17.7398C406.984 17.4416 406.956 17.141 406.946 16.8394C406.996 15.5762 407.423 14.3569 408.172 13.3387C408.921 12.3205 409.958 11.5501 411.149 11.1268C412.289 10.7186 413.492 10.5127 414.702 10.5185C415.807 10.5031 416.906 10.6886 417.945 11.066C418.974 11.4854 419.937 12.0509 420.804 12.7451C420.897 12.8425 421.018 12.9067 421.151 12.9276C421.248 12.9276 421.309 12.7633 421.34 12.6295C421.405 12.3685 421.444 12.1014 421.455 11.8325C421.455 11.5588 421.455 11.3884 421.455 11.3215V11.1694H421.911L422.082 16.9671H421.692V16.8455C421.428 15.2753 420.646 13.8385 419.472 12.7633C418.334 11.7595 416.686 11.2546 414.556 11.2546C413.734 11.2526 412.921 11.4269 412.172 11.7656C411.435 12.084 410.768 12.5427 410.207 13.1162C409.754 13.541 409.391 14.0522 409.139 14.6196C408.887 15.1869 408.752 15.799 408.74 16.4196C408.74 17.0914 408.903 17.7532 409.215 18.3481C409.568 18.9905 410.064 19.5439 410.663 19.9664C411.289 20.4256 411.962 20.8172 412.67 21.1345C413.4 21.463 414.429 21.8888 415.712 22.3877C417.3 22.9961 418.596 23.5314 419.569 24.012C420.544 24.4947 421.413 25.1669 422.124 25.9892C422.86 26.8682 423.31 27.9506 423.414 29.0919C423.433 29.2941 423.437 29.4974 423.426 29.7003Z" fill="white"/>
<path d="M448.211 35.5526C447.85 35.5557 447.498 35.4427 447.207 35.2302C446.935 34.9907 446.726 34.6877 446.599 34.3481C442.948 25.7092 439.596 17.7153 436.609 10.6218L436.573 10.5244H433.92V10.8894H434.072C434.263 10.8608 434.458 10.8895 434.632 10.9718C434.807 11.0541 434.953 11.1864 435.052 11.3518L435.137 11.4978L431.347 20.2035C429.662 24.1397 427.63 28.8058 425.263 34.0743C425.12 34.5057 424.891 34.9033 424.588 35.2424C424.24 35.4682 423.826 35.5691 423.414 35.5283H423.262V35.9359H426.632V35.5283H426.48C425.793 35.5283 425.793 35.2302 425.793 35.1024C425.807 34.8607 425.871 34.6246 425.981 34.4089L428.926 27.7169H441.902L444.688 34.3116C444.798 34.5254 444.862 34.7594 444.877 34.999C444.877 35.218 444.798 35.504 444.104 35.5344H443.958V35.9359H448.326V35.5344L448.211 35.5526ZM429.248 26.999L435.545 12.5138L441.628 26.999H429.248Z" fill="white"/>
<path d="M469.146 12.1608V34.2993C469.146 35.151 469.505 35.5525 470.272 35.5525H470.424V35.9601H467.802L467.759 35.8993L451.078 12.6719V34.2993C451.084 34.6322 451.183 34.9567 451.364 35.2362C451.476 35.353 451.613 35.4423 451.765 35.4972C451.917 35.5521 452.079 35.571 452.24 35.5525H452.392V35.9601H449.07V35.5525H449.222C449.989 35.5525 450.342 35.151 450.342 34.2993V12.1608C450.342 11.3091 449.989 10.9137 449.222 10.9137H449.07V10.5H451.692L451.735 10.5669L468.416 33.7944V12.1608C468.412 11.8287 468.31 11.5052 468.124 11.23C468.015 11.1118 467.879 11.0214 467.728 10.9663C467.576 10.9113 467.414 10.8932 467.254 10.9137H467.102V10.5H470.473V10.8894H470.321C469.53 10.8894 469.146 11.3091 469.146 12.1608Z" fill="white"/>
<path d="M86 48.2629H91.7856V48.9747H86.8274V51.5603H89.4129C90.1673 51.51 90.9168 51.7134 91.5422 52.1382C91.7875 52.3396 91.9815 52.5962 92.1084 52.887C92.2353 53.1778 92.2914 53.4945 92.2723 53.8112C92.2913 54.1448 92.2299 54.478 92.0933 54.7829C91.9568 55.0878 91.749 55.3554 91.4875 55.5633C90.8221 56.0081 90.0291 56.2218 89.2304 56.1717H86V48.2629ZM89.2183 55.5025C89.7996 55.5418 90.3786 55.3971 90.873 55.0888C91.0618 54.9431 91.2117 54.753 91.3093 54.5354C91.407 54.3179 91.4493 54.0796 91.4327 53.8417C91.45 53.6093 91.4089 53.3763 91.3133 53.1638C91.2177 52.9514 91.0705 52.7661 90.8852 52.6249C90.3848 52.3211 89.8021 52.1808 89.2183 52.2234H86.8274V55.4964L89.2183 55.5025Z" fill="white"/>
<path d="M100.988 48.2629H101.816V54.8151L106.877 48.2629H107.632V56.1717H106.81V49.6318L101.749 56.1717H100.988V48.2629Z" fill="white"/>
<path d="M121.742 52.7344C122.033 53.0721 122.191 53.5049 122.186 53.9512C122.196 54.395 122.045 54.8276 121.76 55.1679C121.453 55.5256 121.059 55.798 120.616 55.9588C120.123 56.1494 119.599 56.2444 119.071 56.2386C118.541 56.2388 118.015 56.1525 117.513 55.9831C117.013 55.8189 116.548 55.5609 116.145 55.2227L116.449 54.6143C116.797 54.9133 117.2 55.1426 117.635 55.2896C118.067 55.441 118.522 55.5191 118.98 55.5208C119.384 55.5245 119.785 55.4565 120.166 55.32C120.499 55.1914 120.796 54.9824 121.03 54.7116C121.243 54.4609 121.358 54.1407 121.352 53.8112C121.36 53.6032 121.314 53.3967 121.22 53.2113C121.125 53.026 120.984 52.8681 120.811 52.7527C120.35 52.4786 119.818 52.3494 119.284 52.3816H117.586V51.7306H119.235C119.698 51.7563 120.156 51.6326 120.543 51.3778C120.693 51.2607 120.814 51.11 120.895 50.9377C120.977 50.7655 121.016 50.5766 121.011 50.3861C121.016 50.1653 120.962 49.9471 120.855 49.7537C120.749 49.5603 120.593 49.3986 120.403 49.285C119.956 49.0027 119.435 48.8627 118.907 48.8835C118.519 48.8847 118.135 48.94 117.763 49.0477C117.376 49.1587 117.007 49.3247 116.668 49.5405L116.382 48.8531C117.148 48.3881 118.028 48.1439 118.925 48.1473C119.427 48.1433 119.927 48.232 120.397 48.4089C120.809 48.559 121.172 48.8176 121.449 49.1572C121.695 49.4746 121.831 49.8625 121.839 50.2635C121.847 50.6645 121.725 51.0573 121.492 51.3839C121.241 51.7001 120.896 51.9282 120.507 52.0348C120.981 52.1343 121.412 52.3788 121.742 52.7344Z" fill="white"/>
<path d="M137.651 48.2629V56.1717H136.829V52.5215H131.877V56.1717H131.074V48.2629H131.908V51.7854H136.86V48.2629H137.651Z" fill="white"/>
<path d="M152.689 55.4477V56.1717H147.098V48.2629H152.518V48.9869H147.931V51.7975H152.019V52.5093H147.931V55.4477H152.689Z" fill="white"/>
<path d="M162.619 55.7215C162 55.3873 161.486 54.8882 161.134 54.2796C160.785 53.6484 160.602 52.9388 160.602 52.2173C160.602 51.4958 160.785 50.7861 161.134 50.1549C161.488 49.5477 162.001 49.049 162.619 48.7131C163.273 48.3623 164.006 48.1844 164.748 48.196C165.303 48.1907 165.854 48.2897 166.372 48.488C166.855 48.6722 167.288 48.9659 167.638 49.3458L167.108 49.8811C166.804 49.5713 166.439 49.3276 166.036 49.1653C165.633 49.0031 165.201 48.9258 164.766 48.9382C164.171 48.9316 163.583 49.0804 163.063 49.3701C162.558 49.6431 162.137 50.0492 161.846 50.5443C161.563 51.0564 161.414 51.632 161.414 52.2173C161.414 52.8025 161.563 53.3782 161.846 53.8903C162.139 54.3841 162.559 54.7897 163.063 55.0644C163.584 55.3522 164.171 55.499 164.766 55.4903C165.201 55.5041 165.634 55.4269 166.038 55.2634C166.441 55.1 166.806 54.854 167.108 54.5412L167.638 55.0766C167.284 55.4565 166.85 55.7518 166.366 55.9405C165.847 56.1436 165.293 56.2448 164.736 56.2386C163.997 56.2511 163.268 56.073 162.619 55.7215Z" fill="white"/>
<path d="M188.504 52.5458H186.678V56.196H185.863V48.2872H186.678V51.834H188.504L191.18 48.2872H192.087L189.148 52.126L192.251 56.196H191.302L188.504 52.5458Z" fill="white"/>
<path d="M201.645 55.7154C201.025 55.38 200.507 54.8814 200.149 54.2735C199.798 53.6451 199.613 52.9372 199.613 52.2173C199.613 51.4974 199.798 50.7895 200.149 50.161C200.507 49.5531 201.025 49.0546 201.645 48.7192C202.302 48.3754 203.033 48.1958 203.775 48.1958C204.516 48.1958 205.247 48.3754 205.904 48.7192C206.521 49.0551 207.035 49.5538 207.388 50.161C207.743 50.7904 207.93 51.5007 207.93 52.2234C207.93 52.946 207.743 53.6563 207.388 54.2857C207.035 54.893 206.521 55.3916 205.904 55.7276C205.247 56.0713 204.516 56.2509 203.775 56.2509C203.033 56.2509 202.302 56.0713 201.645 55.7276V55.7154ZM205.466 55.0705C205.961 54.7951 206.372 54.3889 206.652 53.8964C206.936 53.3821 207.084 52.8044 207.084 52.2173C207.084 51.6301 206.936 51.0525 206.652 50.5382C206.374 50.0438 205.963 49.6371 205.466 49.364C204.948 49.079 204.366 48.9324 203.775 48.9382C203.18 48.9325 202.593 49.0791 202.071 49.364C201.565 49.6363 201.145 50.0425 200.854 50.5382C200.571 51.0525 200.423 51.6301 200.423 52.2173C200.423 52.8044 200.571 53.3821 200.854 53.8964C201.146 54.3905 201.567 54.7963 202.071 55.0705C202.594 55.3536 203.18 55.4981 203.775 55.4903C204.367 55.499 204.952 55.3544 205.472 55.0705H205.466Z" fill="white"/>
<path d="M222.635 48.2629L219.039 54.9185C218.832 55.3377 218.525 55.6992 218.145 55.9709C217.813 56.1978 217.421 56.3187 217.019 56.3177C216.684 56.3093 216.354 56.237 216.046 56.1048L216.283 55.4234C216.52 55.5233 216.774 55.577 217.032 55.5816C217.302 55.5721 217.564 55.4882 217.79 55.3389C218.015 55.1897 218.195 54.981 218.309 54.736L218.534 54.3527L215.328 48.269H216.247L219.003 53.6226L221.832 48.269L222.635 48.2629Z" fill="white"/>
<path d="M236.463 48.2629V56.1717H235.648V52.8926C234.863 53.2465 234.014 53.435 233.153 53.4462C232.373 53.4937 231.603 53.2535 230.988 52.7709C230.726 52.5321 230.52 52.2378 230.386 51.9094C230.253 51.5809 230.194 51.2268 230.215 50.8728V48.2629H231.042V50.7816C231.029 51.0462 231.073 51.3105 231.172 51.5564C231.27 51.8022 231.421 52.0236 231.614 52.2052C232.072 52.5702 232.648 52.7523 233.233 52.7162C234.075 52.7081 234.906 52.5149 235.666 52.1504V48.2629H236.463Z" fill="white"/>
</svg>
