<svg width="100" height="101" viewBox="0 0 100 101" fill="none" xmlns="http://www.w3.org/2000/svg">
<path d="M35.3575 82.2463C35.3575 91.873 27.5535 99.677 17.9268 99.677C8.30008 99.677 0.496094 91.873 0.496094 82.2463C0.496094 72.6196 8.30008 64.8156 17.9268 64.8156C27.5535 64.8156 35.3575 72.6196 35.3575 82.2463Z" fill="#FFF7F1"/>
<path d="M24.641 11.0465C24.641 13.0039 23.0543 14.5906 21.0969 14.5906C19.1396 14.5906 17.5528 13.0039 17.5528 11.0465C17.5528 9.08918 19.1396 7.50243 21.0969 7.50243C23.0543 7.50243 24.641 9.08918 24.641 11.0465Z" fill="#FFF7F1"/>
<path d="M37.8048 11.0465C37.8048 13.0039 36.2181 14.5906 34.2607 14.5906C32.3033 14.5906 30.7166 13.0039 30.7166 11.0465C30.7166 9.08918 32.3033 7.50243 34.2607 7.50243C36.2181 7.50243 37.8048 9.08918 37.8048 11.0465Z" fill="#FFF7F1"/>
<path d="M50.9686 11.0465C50.9686 13.0039 49.3818 14.5906 47.4245 14.5906C45.4671 14.5906 43.8804 13.0039 43.8804 11.0465C43.8804 9.08918 45.4671 7.50243 47.4245 7.50243C49.3818 7.50243 50.9686 9.08918 50.9686 11.0465Z" fill="#FFF7F1"/>
<path fill-rule="evenodd" clip-rule="evenodd" d="M87.4223 29.1721H62.4935L53.9614 37.6329V74.7841C53.9614 75.8778 54.848 76.7643 55.9416 76.7643H87.4223C88.5159 76.7643 89.4025 75.8778 89.4025 74.7841V31.1523C89.4025 30.0586 88.5159 29.1721 87.4223 29.1721ZM72.2783 67.7859C65.1697 67.7859 58.8895 63.0134 58.8895 55.9048C58.8895 48.7961 62.8723 42.0434 72.7508 42.0434C79.8595 42.0434 85.3075 48.8283 84.632 55.9048C84.1595 60.8553 79.3869 67.7859 72.2783 67.7859Z" fill="#FFF7F1"/>
<path fill-rule="evenodd" clip-rule="evenodd" d="M75.8281 51.3641C75.8281 52.5797 75.2259 53.6547 74.3035 54.307C75.3144 54.6316 76.2137 55.1658 76.9395 55.7794C77.5376 56.2851 78.0293 56.8538 78.3745 57.4219C78.7154 57.9827 78.9349 58.5785 78.9349 59.131C78.9349 60.2775 78.0183 61.1822 76.8412 61.7707C75.6345 62.3741 74.0022 62.7329 72.2261 62.7329C70.45 62.7329 68.8176 62.3741 67.6109 61.7707C66.4338 61.1822 65.5173 60.2775 65.5173 59.131C65.5173 58.5785 65.7368 57.9827 66.0776 57.4219C66.4229 56.8538 66.9145 56.2851 67.5127 55.7794C68.2385 55.1658 69.1378 54.6315 70.1488 54.3069C69.2265 53.6547 68.6243 52.5797 68.6243 51.3641C68.6243 49.3748 70.2369 47.7622 72.2262 47.7622C74.2155 47.7622 75.8281 49.3748 75.8281 51.3641ZM69.6144 51.3641C69.6144 49.9216 70.7838 48.7523 72.2262 48.7523C73.6687 48.7523 74.838 49.9216 74.838 51.3641C74.838 52.7968 73.6844 53.9601 72.2553 53.9758L72.2261 53.9757L72.197 53.9758C70.768 53.9601 69.6144 52.7968 69.6144 51.3641ZM72.2262 54.966L72.1947 54.9659C70.6321 54.9748 69.2003 55.6493 68.1519 56.5355C67.6256 56.9804 67.2073 57.4695 66.9237 57.9361C66.6357 58.41 66.5074 58.8257 66.5074 59.131C66.5074 59.7004 66.9819 60.3492 68.0537 60.8851C69.0959 61.4062 70.5704 61.7428 72.2261 61.7428C73.8818 61.7428 75.3562 61.4062 76.3985 60.8851C77.4703 60.3492 77.9448 59.7004 77.9448 59.131C77.9448 58.8257 77.8165 58.41 77.5285 57.9361C77.2449 57.4695 76.8265 56.9804 76.3003 56.5355C75.252 55.6493 73.8202 54.9749 72.2576 54.9659L72.2262 54.966Z" fill="black"/>
<path fill-rule="evenodd" clip-rule="evenodd" d="M85.1485 54.9147C85.1485 47.5326 79.1642 41.5483 71.7822 41.5483C64.4002 41.5483 58.4158 47.5326 58.4158 54.9147C58.4158 62.2967 64.4002 68.281 71.7822 68.281C79.1642 68.281 85.1485 62.2967 85.1485 54.9147ZM71.7822 42.5384C78.6174 42.5384 84.1584 48.0795 84.1584 54.9147C84.1584 61.7499 78.6174 67.2909 71.7822 67.2909C64.947 67.2909 59.4059 61.7499 59.4059 54.9147C59.4059 48.0795 64.947 42.5384 71.7822 42.5384Z" fill="black"/>
<path fill-rule="evenodd" clip-rule="evenodd" d="M62.4925 28.677C62.362 28.677 62.2367 28.7286 62.144 28.8206L53.6119 37.2814C53.5181 37.3744 53.4654 37.5009 53.4654 37.6329V74.7841C53.4654 76.1512 54.5736 77.2594 55.9406 77.2594H87.4213C88.7883 77.2594 89.8965 76.1512 89.8965 74.7842V31.1523C89.8965 29.7852 88.7883 28.677 87.4213 28.677H62.4925ZM61.9975 35.6527V30.3602L55.1627 37.1379H60.5123C61.3326 37.1379 61.9975 36.473 61.9975 35.6527ZM60.5123 38.128H54.4555V74.7841C54.4555 75.6044 55.1204 76.2693 55.9406 76.2693H87.4213C88.2415 76.2693 88.9064 75.6044 88.9064 74.7842V31.1523C88.9064 30.3321 88.2415 29.6671 87.4213 29.6671H62.9876V35.6527C62.9876 37.0198 61.8794 38.128 60.5123 38.128Z" fill="black"/>
<path d="M43.2944 34.8652C43.2944 34.5918 43.0728 34.3701 42.7993 34.3701H18.4969C18.2235 34.3701 18.0019 34.5918 18.0019 34.8652C18.0019 35.1386 18.2235 35.3602 18.4969 35.3602H42.7993C43.0728 35.3602 43.2944 35.1386 43.2944 34.8652Z" fill="black"/>
<path d="M42.7993 46.5213C43.0728 46.5213 43.2944 46.7429 43.2944 47.0164C43.2944 47.2898 43.0728 47.5114 42.7993 47.5114H18.4969C18.2235 47.5114 18.0019 47.2898 18.0019 47.0164C18.0019 46.7429 18.2235 46.5213 18.4969 46.5213H42.7993Z" fill="black"/>
<path d="M43.2944 59.1676C43.2944 58.8942 43.0728 58.6726 42.7993 58.6726H18.4969C18.2235 58.6726 18.0019 58.8942 18.0019 59.1676C18.0019 59.441 18.2235 59.6627 18.4969 59.6627H42.7993C43.0728 59.6627 43.2944 59.441 43.2944 59.1676Z" fill="black"/>
<path fill-rule="evenodd" clip-rule="evenodd" d="M17.0567 11.0465C17.0567 8.81578 18.8651 7.00739 21.0959 7.00739C23.3266 7.00739 25.135 8.81578 25.135 11.0465C25.135 13.2773 23.3266 15.0857 21.0959 15.0857C18.8651 15.0857 17.0567 13.2773 17.0567 11.0465ZM21.0959 7.99748C19.4119 7.99748 18.0468 9.36259 18.0468 11.0465C18.0468 12.7305 19.4119 14.0956 21.0959 14.0956C22.7798 14.0956 24.1449 12.7305 24.1449 11.0465C24.1449 9.36259 22.7798 7.99748 21.0959 7.99748Z" fill="black"/>
<path fill-rule="evenodd" clip-rule="evenodd" d="M34.2597 7.00739C32.0289 7.00739 30.2205 8.81578 30.2205 11.0465C30.2205 13.2773 32.0289 15.0857 34.2597 15.0857C36.4904 15.0857 38.2988 13.2773 38.2988 11.0465C38.2988 8.81578 36.4904 7.00739 34.2597 7.00739ZM31.2106 11.0465C31.2106 9.36259 32.5757 7.99748 34.2597 7.99748C35.9436 7.99748 37.3087 9.36259 37.3087 11.0465C37.3087 12.7305 35.9436 14.0956 34.2597 14.0956C32.5757 14.0956 31.2106 12.7305 31.2106 11.0465Z" fill="black"/>
<path fill-rule="evenodd" clip-rule="evenodd" d="M43.3843 11.0465C43.3843 8.81578 45.1927 7.00739 47.4234 7.00739C49.6542 7.00739 51.4626 8.81578 51.4626 11.0465C51.4626 13.2773 49.6542 15.0857 47.4234 15.0857C45.1927 15.0857 43.3843 13.2773 43.3843 11.0465ZM47.4234 7.99748C45.7395 7.99748 44.3744 9.36259 44.3744 11.0465C44.3744 12.7305 45.7395 14.0956 47.4234 14.0956C49.1074 14.0956 50.4725 12.7305 50.4725 11.0465C50.4725 9.36259 49.1074 7.99748 47.4234 7.99748Z" fill="black"/>
<path fill-rule="evenodd" clip-rule="evenodd" d="M88.6139 0.954269C94.9023 0.954269 100 6.05201 100 12.3404V77.6419C100 83.9303 94.9023 89.0281 88.6139 89.0281H34.5242C31.8503 95.5659 25.4259 100.172 17.9257 100.172C8.02563 100.172 0 92.1465 0 82.2463C0 75.231 4.02988 69.157 9.90099 66.2128V12.3404C9.90099 6.05202 14.9987 0.954269 21.2871 0.954269H88.6139ZM10.8911 65.7536C13.0509 64.8312 15.4287 64.3206 17.9257 64.3206C23.4852 64.3206 28.4535 66.8514 31.7415 70.8238H42.7993C43.0728 70.8238 43.2944 71.0454 43.2944 71.3188C43.2944 71.5922 43.0728 71.8139 42.7993 71.8139L32.4594 71.7511C34.5936 74.7012 35.8515 78.3269 35.8515 82.2463C35.8515 84.2896 35.5096 86.2529 34.88 88.0824L88.6139 88.038C94.3554 88.038 99.0099 83.3835 99.0099 77.6419V19.6649H89.6929C89.0364 19.6649 88.4068 19.4041 87.9426 18.9399L84.5459 15.5432C84.2673 15.2646 83.8896 15.1082 83.4957 15.1082H67.4156C67.0218 15.1082 66.644 15.2646 66.3655 15.5432L62.9687 18.9399C62.5045 19.4041 61.875 19.6649 61.2185 19.6649H10.8911V65.7536ZM10.8911 18.6748H61.2185C61.6124 18.6748 61.9901 18.5183 62.2686 18.2398L65.6654 14.8431C66.1296 14.3789 66.7592 14.1181 67.4156 14.1181H83.4957C84.1522 14.1181 84.7818 14.3789 85.246 14.8431L88.6427 18.2398C88.9212 18.5183 89.299 18.6748 89.6929 18.6748H99.0099V12.3404C99.0099 6.59883 94.3554 1.94437 88.6139 1.94437H21.2871C15.5456 1.94437 10.8911 6.59883 10.8911 12.3404V18.6748ZM0.990099 82.2463C0.990099 72.8931 8.57244 65.3107 17.9257 65.3107C27.279 65.3107 34.8614 72.8931 34.8614 82.2463C34.8614 91.5996 27.279 99.182 17.9257 99.182C8.57244 99.182 0.990099 91.5996 0.990099 82.2463Z" fill="black"/>
<path fill-rule="evenodd" clip-rule="evenodd" d="M18.1522 76.2432C18.3171 76.328 18.4208 76.4979 18.4208 76.6834V88.1802C18.4208 88.4536 18.1991 88.6753 17.9257 88.6753C17.6523 88.6753 17.4307 88.4536 17.4307 88.1802V77.6453L15.6174 78.9405C15.3949 79.0994 15.0857 79.0479 14.9268 78.8254C14.7679 78.603 14.8194 78.2938 15.0419 78.1349L17.638 76.2805C17.7889 76.1727 17.9874 76.1583 18.1522 76.2432Z" fill="black"/>
</svg>
