<svg width="111" height="111" viewBox="0 0 111 111" fill="none" xmlns="http://www.w3.org/2000/svg">
<path d="M20.5898 5.53342C20.5898 3.69981 22.0763 2.21338 23.9099 2.21338H98.0574C99.891 2.21338 101.377 3.69981 101.377 5.53342V99.6012C101.377 101.435 99.891 102.921 98.0574 102.921H92.524V13.2802C92.524 10.8354 90.5421 8.85346 88.0973 8.85346H20.5898V5.53342Z" fill="#FFF7F1"/>
<path d="M74.4745 28.8778C73.9923 27.4368 72.8974 26.2626 71.4571 25.5081C69.8291 26.361 68.6813 27.75 68.3352 29.4545C67.0331 28.5718 65.5368 28.147 64.0367 28.5744C63.4642 30.5836 63.9384 32.7948 65.4763 34.3327C67.0141 35.8705 69.2253 36.3447 71.2346 35.7722C71.2524 35.7097 71.269 35.6474 71.2844 35.5853C71.3298 35.6114 71.3755 35.6369 71.4215 35.662C71.4313 35.6988 71.4414 35.7356 71.4519 35.7723C73.4611 36.3447 75.6438 35.7753 77.1816 34.2374C78.5987 32.5936 79.0578 30.5783 78.4854 28.569C77.1073 28.1764 75.7116 28.2786 74.4745 28.8778Z" fill="#FFF7F1"/>
<path d="M32.6051 27.3284C34.0229 27.4457 36.1496 28.5195 35.5051 32.2023C35.0679 34.7003 34.1325 36.0459 33.087 36.612C31.3752 37.5389 28.5803 37.6567 26.9368 36.6134C26.1055 36.0856 25.3308 34.9239 24.861 32.7032C23.9231 28.2695 26.2943 27.261 28.1403 27.2665C28.5856 27.2678 29.0568 27.3107 29.5341 27.3541C30.3749 27.4305 31.2346 27.5087 32.0056 27.3648C32.2391 27.3212 32.3684 27.3088 32.6051 27.3284Z" fill="#FFF7F1"/>
<path d="M31.5414 67.3231C31.5414 66.7119 31.0459 66.2164 30.4347 66.2164H29.1897C28.5785 66.2164 28.083 66.7119 28.083 67.3231V69.8362C28.083 70.4474 27.5875 70.9428 26.9763 70.9428H24.4632C23.852 70.9428 23.3565 71.4383 23.3565 72.0495V73.2945C23.3565 73.9057 23.852 74.4012 24.4632 74.4012H26.9763C27.5875 74.4012 28.083 74.8967 28.083 75.5079V78.021C28.083 78.6322 28.5785 79.1277 29.1897 79.1277H30.4347C31.0459 79.1277 31.5414 78.6322 31.5414 78.021V75.5079C31.5414 74.8967 32.0368 74.4012 32.648 74.4012H35.1611C35.7723 74.4012 36.2678 73.9057 36.2678 73.2945V72.0495C36.2678 71.4383 35.7723 70.9428 35.1611 70.9428H32.648C32.0368 70.9428 31.5414 70.4474 31.5414 69.8362V67.3231Z" fill="#FFF7F1"/>
<path d="M71.1259 79.1275C67.8972 77.3542 62.0856 72.9869 64.6685 69.7038C66.7673 67.036 70.0496 68.3358 71.1259 69.7038C72.2021 68.3358 75.4848 67.036 77.5836 69.7038C80.1665 72.9869 74.3545 77.3542 71.1259 79.1275Z" fill="#FFF7F1"/>
<path d="M48.2535 91.301C47.9479 91.301 47.7001 91.5487 47.7001 91.8543C47.7001 92.1599 47.9479 92.4076 48.2535 92.4076H78.1338C78.4394 92.4076 78.6871 92.1599 78.6871 91.8543C78.6871 91.5487 78.4394 91.301 78.1338 91.301H48.2535Z" fill="black"/>
<path d="M22.2465 91.8543C22.2465 91.5487 22.4942 91.301 22.7998 91.301H39.4C39.7056 91.301 39.9534 91.5487 39.9534 91.8543C39.9534 92.1599 39.7056 92.4076 39.4 92.4076H22.7998C22.4942 92.4076 22.2465 92.1599 22.2465 91.8543Z" fill="black"/>
<path d="M22.7998 100.154C22.4942 100.154 22.2465 100.402 22.2465 100.708C22.2465 101.013 22.4942 101.261 22.7998 101.261H78.1338C78.4394 101.261 78.6871 101.013 78.6871 100.708C78.6871 100.402 78.4394 100.154 78.1338 100.154H22.7998Z" fill="black"/>
<path fill-rule="evenodd" clip-rule="evenodd" d="M20.0331 5.53329C20.0331 3.39408 21.7673 1.65991 23.9065 1.65991H98.054C100.193 1.65991 101.927 3.39408 101.927 5.53329V99.6011C101.927 101.74 100.193 103.474 98.054 103.474H93.074V106.241C93.074 108.38 91.3398 110.115 89.2006 110.115H16.1597C13.4093 110.115 11.1797 107.885 11.1797 105.134V12.1734C11.1797 10.0342 12.9139 8.29999 15.0531 8.29999H20.0331V5.53329ZM98.054 102.368H93.074V13.28C93.074 10.5296 90.8443 8.29999 88.0939 8.29999H21.1398V5.53329C21.1398 4.00529 22.3785 2.76659 23.9065 2.76659H98.054C99.582 2.76659 100.821 4.00529 100.821 5.53329V99.6011C100.821 101.129 99.5821 102.368 98.054 102.368ZM15.0531 9.40667H88.0939C90.2331 9.40667 91.9673 11.1408 91.9673 13.28V106.241C91.9673 107.769 90.7286 109.008 89.2006 109.008H16.1597C14.0205 109.008 12.2864 107.274 12.2864 105.134V12.1734C12.2864 10.6454 13.5251 9.40667 15.0531 9.40667Z" fill="black"/>
<path fill-rule="evenodd" clip-rule="evenodd" d="M71.646 24.9618C71.4868 24.8796 71.2977 24.8796 71.1385 24.9618C69.6587 25.7256 68.4983 26.9663 67.9357 28.466C67.4619 28.2061 66.922 28.0123 66.3724 27.8935C65.5385 27.7134 64.6291 27.6946 63.8301 27.9223C63.646 27.9748 63.5021 28.1187 63.4496 28.3029C62.8253 30.4947 63.3392 32.9233 65.0331 34.6177C66.7026 36.2876 69.2707 36.7327 71.4098 36.1766C73.5485 36.7376 75.706 36.2757 77.3633 34.618C79.0572 32.9236 79.5711 30.4951 78.9468 28.3032C78.8943 28.1191 78.7504 27.9751 78.5663 27.9227C77.2498 27.5474 75.9238 27.5563 74.6572 28.0132C74.0449 26.7169 72.9741 25.6473 71.646 24.9618ZM68.8034 29.4048C68.7988 29.447 68.7893 29.4887 68.7749 29.5293C68.7062 29.8499 68.6704 30.18 68.6704 30.5166C68.6704 32.35 69.7497 34.0142 71.41 34.9726C73.0623 34.0169 74.1141 32.3553 74.1141 30.5166C74.1141 28.6827 73.0507 27.04 71.3923 26.0838C70.0777 26.8418 69.137 28.031 68.8034 29.4048ZM66.1387 28.9753C66.7101 29.0987 67.2356 29.3129 67.6394 29.5778C67.5896 29.8837 67.5637 30.1972 67.5637 30.5166C67.5637 32.4179 68.4914 34.1215 69.9262 35.2898C68.4213 35.3666 66.871 34.8907 65.8157 33.8352C64.5056 32.5248 64.0431 30.666 64.4347 28.9177C64.9554 28.8254 65.5528 28.8487 66.1387 28.9753ZM76.5807 33.8356C75.5311 34.8855 74.2474 35.3543 72.8872 35.2923C74.317 34.1218 75.2208 32.4155 75.2208 30.5166C75.2208 30.012 75.1563 29.5224 75.0347 29.0536C75.9718 28.716 76.9542 28.6755 77.9595 28.9085C78.355 30.6596 77.8932 32.5228 76.5807 33.8356Z" fill="black"/>
<path fill-rule="evenodd" clip-rule="evenodd" d="M71.1234 20.4735C65.1132 20.4735 60.241 25.3457 60.241 31.3558C60.241 37.366 65.1132 42.2382 71.1234 42.2382C77.1336 42.2382 82.0057 37.366 82.0057 31.3558C82.0057 25.3457 77.1336 20.4735 71.1234 20.4735ZM61.3477 31.3558C61.3477 25.9569 65.7244 21.5801 71.1234 21.5801C76.5223 21.5801 80.8991 25.9569 80.8991 31.3558C80.8991 36.7548 76.5223 41.1315 71.1234 41.1315C65.7244 41.1315 61.3477 36.7548 61.3477 31.3558Z" fill="black"/>
<path d="M50.139 23.7935C48.1459 23.7935 46.2002 23.9458 44.3211 24.2357C43.4446 24.3709 42.5826 24.5361 41.737 24.7297C41.4391 24.7979 41.1423 24.6117 41.0741 24.3138C41.0059 24.0159 41.1921 23.7191 41.49 23.6509C42.3616 23.4514 43.2497 23.2812 44.1524 23.142C46.0875 22.8434 48.0895 22.6868 50.139 22.6868C52.1885 22.6868 54.1906 22.8434 56.1257 23.142C57.2593 23.3168 58.37 23.5405 59.4539 23.8098C59.7457 23.8824 59.9261 24.1747 59.8603 24.4681C59.7944 24.7614 59.5063 24.9485 59.2115 24.8894L55.9447 24.2338C54.0694 23.9451 52.1279 23.7935 50.139 23.7935Z" fill="black"/>
<path d="M51.2457 80.2342C49.2525 80.2342 47.3069 80.0819 45.4278 79.792C44.5513 79.6568 43.6892 79.4916 42.8437 79.298C42.5458 79.2298 42.249 79.416 42.1808 79.7139C42.1126 80.0118 42.2988 80.3086 42.5967 80.3768C43.4683 80.5763 44.3564 80.7465 45.2591 80.8857C47.1941 81.1842 49.1962 81.3409 51.2457 81.3409C53.2952 81.3409 55.2973 81.1842 57.2324 80.8857C58.366 80.7108 59.4767 80.4872 60.5605 80.2178C60.8523 80.1453 61.0328 79.853 60.967 79.5596C60.9011 79.2662 60.613 79.0791 60.3182 79.1383L57.0514 79.7939C55.1761 80.0825 53.2345 80.2342 51.2457 80.2342Z" fill="black"/>
<path d="M78.245 58.1597C78.5349 56.2806 78.6871 54.3349 78.6871 52.3418C78.6871 50.3529 78.5355 48.4114 78.2468 46.5361L77.5913 43.2693C77.5321 42.9745 77.7192 42.6864 78.0126 42.6205C78.306 42.5546 78.5983 42.7351 78.6708 43.0269C78.9402 44.1108 79.1638 45.2215 79.3387 46.3551C79.6372 48.2902 79.7938 50.2923 79.7938 52.3418C79.7938 54.3913 79.6372 56.3933 79.3387 58.3284C79.1994 59.2311 79.0293 60.1192 78.8298 60.9908C78.7615 61.2887 78.4648 61.4749 78.1669 61.4067C77.869 61.3385 77.6828 61.0417 77.751 60.7438C77.9446 59.8982 78.1097 59.0362 78.245 58.1597Z" fill="black"/>
<path d="M22.2465 52.3418C22.2465 54.3349 22.3988 56.2806 22.6887 58.1597C22.8239 59.0362 22.9891 59.8982 23.1827 60.7438C23.2509 61.0417 23.0647 61.3385 22.7668 61.4067C22.4689 61.4749 22.1721 61.2887 22.1039 60.9908C21.9043 60.1192 21.7342 59.2311 21.5949 58.3284C21.2964 56.3933 21.1398 54.3913 21.1398 52.3418C21.1398 50.2923 21.2964 48.2902 21.5949 46.3551C21.7698 45.2215 21.9934 44.1108 22.2628 43.0269C22.3354 42.7351 22.6276 42.5546 22.921 42.6205C23.2144 42.6864 23.4015 42.9745 23.3423 43.2693L22.6868 46.5361C22.3981 48.4114 22.2465 50.3529 22.2465 52.3418Z" fill="black"/>
<path fill-rule="evenodd" clip-rule="evenodd" d="M29.1863 65.6629C28.2695 65.6629 27.5263 66.4062 27.5263 67.323V69.836C27.5263 70.1416 27.2785 70.3894 26.9729 70.3894H24.4598C23.543 70.3894 22.7998 71.1326 22.7998 72.0494V73.2944C22.7998 74.2112 23.543 74.9544 24.4598 74.9544H26.9729C27.2785 74.9544 27.5263 75.2022 27.5263 75.5078V78.0209C27.5263 78.9377 28.2695 79.6809 29.1863 79.6809H30.4313C31.3481 79.6809 32.0913 78.9377 32.0913 78.0209V75.5078C32.0913 75.2022 32.3391 74.9544 32.6447 74.9544H35.1577C36.0746 74.9544 36.8178 74.2112 36.8178 73.2944V72.0494C36.8178 71.1326 36.0746 70.3894 35.1577 70.3894H32.6447C32.3391 70.3894 32.0913 70.1416 32.0913 69.836V67.323C32.0913 66.4062 31.3481 65.6629 30.4313 65.6629H29.1863ZM28.6329 67.323C28.6329 67.0173 28.8807 66.7696 29.1863 66.7696H30.4313C30.7369 66.7696 30.9846 67.0173 30.9846 67.323V69.836C30.9846 70.7528 31.7279 71.4961 32.6447 71.4961H35.1577C35.4634 71.4961 35.7111 71.7438 35.7111 72.0494V73.2944C35.7111 73.6 35.4634 73.8477 35.1577 73.8477H32.6447C31.7279 73.8477 30.9846 74.591 30.9846 75.5078V78.0209C30.9846 78.3265 30.7369 78.5742 30.4313 78.5742H29.1863C28.8807 78.5742 28.6329 78.3265 28.6329 78.0209V75.5078C28.6329 74.591 27.8897 73.8477 26.9729 73.8477H24.4598C24.1542 73.8477 23.9065 73.6 23.9065 73.2944V72.0494C23.9065 71.7438 24.1542 71.4961 24.4598 71.4961H26.9729C27.8897 71.4961 28.6329 70.7528 28.6329 69.836V67.323Z" fill="black"/>
<path fill-rule="evenodd" clip-rule="evenodd" d="M18.9264 72.6719C18.9264 66.6617 23.7986 61.7896 29.8088 61.7896C35.8189 61.7896 40.6911 66.6617 40.6911 72.6719C40.6911 78.6821 35.8189 83.5543 29.8088 83.5543C23.7986 83.5543 18.9264 78.6821 18.9264 72.6719ZM29.8088 62.8962C24.4098 62.8962 20.0331 67.2729 20.0331 72.6719C20.0331 78.0709 24.4098 82.4476 29.8088 82.4476C35.2077 82.4476 39.5845 78.0709 39.5845 72.6719C39.5845 67.2729 35.2077 62.8962 29.8088 62.8962Z" fill="black"/>
<path fill-rule="evenodd" clip-rule="evenodd" d="M68.3503 67.6417C69.437 67.7868 70.4415 68.2909 71.1223 68.9017C71.8032 68.2909 72.8078 67.7868 73.8945 67.6417C75.2822 67.4566 76.8304 67.8558 78.0149 69.3615C78.7781 70.3316 78.9212 71.4017 78.6505 72.4501C78.3872 73.4699 77.7383 74.4566 76.944 75.3495C75.3525 77.1383 73.0328 78.7094 71.3887 79.6124C71.2228 79.7035 71.0219 79.7035 70.856 79.6124C69.2119 78.7094 66.8923 77.1383 65.3009 75.3495C64.5066 74.4566 63.8578 73.4699 63.5945 72.4501C63.3238 71.4017 63.4669 70.3316 64.2301 69.3615C65.4146 67.8558 66.9628 67.4566 68.3503 67.6417ZM65.0999 70.0458C66.0142 68.8836 67.1566 68.5989 68.2039 68.7387C69.2885 68.8834 70.2445 69.4827 70.6875 70.0458C70.7924 70.1791 70.9527 70.257 71.1223 70.257C71.292 70.257 71.4523 70.1791 71.5572 70.0458C72.0002 69.4827 72.9562 68.8835 74.0409 68.7387C75.0884 68.5989 76.2309 68.8837 77.1452 70.0458C77.6734 70.7172 77.7725 71.4242 77.579 72.1734C77.3781 72.9513 76.8565 73.7829 76.1171 74.6139C74.7222 76.1818 72.68 77.6069 71.1223 78.4934C69.5646 77.6069 67.5226 76.1818 66.1277 74.6139C65.3885 73.7829 64.8669 72.9514 64.666 72.1735C64.4726 71.4242 64.5716 70.7172 65.0999 70.0458Z" fill="black"/>
<path fill-rule="evenodd" clip-rule="evenodd" d="M71.1234 61.7894C65.1132 61.7894 60.241 66.6616 60.241 72.6718C60.241 78.6819 65.1132 83.5541 71.1234 83.5541C77.1336 83.5541 82.0057 78.6819 82.0057 72.6718C82.0057 66.6616 77.1336 61.7894 71.1234 61.7894ZM61.3477 72.6718C61.3477 67.2728 65.7244 62.8961 71.1234 62.8961C76.5223 62.8961 80.8991 67.2728 80.8991 72.6718C80.8991 78.0707 76.5223 82.4474 71.1234 82.4474C65.7244 82.4474 61.3477 78.0707 61.3477 72.6718Z" fill="black"/>
<path d="M25.399 32.5885C25.0688 31.0275 25.1839 29.9881 25.4805 29.3058C25.7705 28.6387 26.2597 28.2528 26.8226 28.0392C27.3994 27.8204 28.0539 27.7849 28.6186 27.8469C28.8983 27.8776 29.144 27.931 29.3333 27.9904C29.3988 28.0109 29.4551 28.0315 29.5021 28.0509C29.491 28.2104 29.4871 28.3776 29.4912 28.5525C29.4661 28.5271 29.443 28.5012 29.4224 28.4755C29.2315 28.2368 28.8833 28.1981 28.6447 28.3891C28.406 28.58 28.3673 28.9282 28.5582 29.1668C28.7751 29.4379 29.1792 29.7883 29.7065 29.8956C30.2954 30.0154 30.9135 29.8075 31.426 29.1668C31.6169 28.9282 31.5782 28.58 31.3396 28.3891C31.1143 28.2088 30.7913 28.2332 30.5953 28.4373C30.588 27.2484 31.0571 26.7308 31.1756 26.6519C31.4299 26.4824 31.4986 26.1388 31.3291 25.8845C31.1595 25.6302 30.816 25.5615 30.5617 25.7311C30.2577 25.9337 29.93 26.3407 29.718 26.9516C29.7002 26.9458 29.6824 26.94 29.6647 26.9345C29.4005 26.8515 29.0837 26.7846 28.7393 26.7468C28.0556 26.6718 27.2152 26.7067 26.4302 27.0045C25.6313 27.3075 24.8917 27.8842 24.4656 28.8646C24.0461 29.8298 23.9577 31.1227 24.3162 32.8175C24.7994 35.1015 25.623 36.4368 26.6368 37.0804C27.5775 37.6776 28.8037 37.9205 29.9902 37.9047C31.1801 37.8888 32.3982 37.6123 33.3471 37.0985C34.6037 36.4181 35.5954 34.8767 36.0467 32.2975C36.4196 30.1667 35.9339 28.7349 35.0434 27.8495C34.1786 26.9896 33.0259 26.7411 32.2291 26.7653C31.9236 26.7745 31.6835 27.0297 31.6928 27.3351C31.702 27.6406 31.9571 27.8807 32.2626 27.8715C32.8433 27.8539 33.6691 28.0437 34.2631 28.6343C34.8316 29.1995 35.285 30.2303 34.9566 32.1067C34.5337 34.5235 33.6545 35.6735 32.8201 36.1253C32.0572 36.5384 31.0219 36.7842 29.9755 36.7981C28.9257 36.8121 27.9327 36.5922 27.2299 36.1461C26.5811 35.7342 25.8554 34.746 25.399 32.5885Z" fill="black"/>
<path fill-rule="evenodd" clip-rule="evenodd" d="M18.9264 31.3558C18.9264 25.3457 23.7986 20.4735 29.8088 20.4735C35.8189 20.4735 40.6911 25.3457 40.6911 31.3558C40.6911 37.366 35.8189 42.2382 29.8088 42.2382C23.7986 42.2382 18.9264 37.366 18.9264 31.3558ZM29.8088 21.5801C24.4098 21.5801 20.0331 25.9569 20.0331 31.3558C20.0331 36.7548 24.4098 41.1315 29.8088 41.1315C35.2077 41.1315 39.5845 36.7548 39.5845 31.3558C39.5845 25.9569 35.2077 21.5801 29.8088 21.5801Z" fill="black"/>
<path d="M60.8279 46.0991C61.0385 46.3205 61.0297 46.6708 60.8083 46.8814L49.1723 57.9482C48.9587 58.1514 48.6233 58.1514 48.4096 57.9482L42.3387 52.1742C42.1173 51.9636 42.1085 51.6134 42.3191 51.3919C42.5297 51.1705 42.88 51.1617 43.1014 51.3723L48.791 56.7836L60.0456 46.0795C60.267 45.8689 60.6173 45.8777 60.8279 46.0991Z" fill="black"/>
</svg>
