<svg width="278" height="17" viewBox="0 0 278 17" fill="none" xmlns="http://www.w3.org/2000/svg">
<circle cx="147" cy="8.5" r="2" transform="rotate(90 147 8.5)" fill="#B0B0B0"/>
<circle cx="140" cy="8.5" r="2" transform="rotate(90 140 8.5)" fill="#B0B0B0"/>
<circle cx="132.5" cy="8.5" r="2.5" transform="rotate(90 132.5 8.5)" fill="#049AFB"/>
<path fill-rule="evenodd" clip-rule="evenodd" d="M263.25 1C263.25 0.585786 263.586 0.25 264 0.25H277C277.414 0.25 277.75 0.585786 277.75 1V16C277.75 16.3051 277.565 16.5798 277.283 16.6947C277 16.8097 276.676 16.742 276.463 16.5236L270.5 10.4077L264.537 16.5236C264.324 16.742 264 16.8097 263.717 16.6947C263.435 16.5798 263.25 16.3051 263.25 16V1ZM264.75 1.75V14.1564L269.963 8.80976C270.104 8.66498 270.298 8.58333 270.5 8.58333C270.702 8.58333 270.896 8.66498 271.037 8.80976L276.25 14.1564V1.75H264.75Z" fill="black"/>
<path d="M73.75 2H58.75L64.375 7.39024M73.75 2L65.625 15L64.375 7.39024M73.75 2L64.375 7.39024" stroke="black" stroke-width="1.5" stroke-linejoin="round"/>
<path fill-rule="evenodd" clip-rule="evenodd" d="M10.9724 13.1172C10.5064 13.5137 10.1933 13.7702 10.0023 13.9066C9.78058 13.746 9.40647 13.4385 8.90091 13.0091C8.51116 12.678 8.05192 12.2821 7.5376 11.8387L7.53747 11.8386L7.53637 11.8376C7.24157 11.5834 6.92869 11.3137 6.60043 11.0316L6.59846 11.0299C6.37022 10.8379 6.14321 10.6504 5.9196 10.4657L5.91959 10.4657C5.08286 9.77452 4.2937 9.12268 3.66617 8.41983C2.87847 7.53758 2.375 6.60526 2.375 5.46583C2.375 3.32359 4.03928 1.57914 6.025 1.57914C6.7722 1.57914 7.33759 1.74916 7.78377 2.00842C8.23183 2.26878 8.57311 2.62704 8.86006 3.02271L8.86363 3.0274C9.21081 3.48311 9.41078 3.82335 9.53825 4.05043L9.58253 4.12986C9.62536 4.20698 9.66373 4.27606 9.69583 4.32609C9.71738 4.35969 9.74654 4.40174 9.78358 4.43727C9.81992 4.47213 9.89317 4.52878 10 4.52878C10.1068 4.52878 10.1801 4.47213 10.2164 4.43727C10.2535 4.40174 10.2826 4.35969 10.3042 4.32609C10.3363 4.27606 10.3746 4.20698 10.4175 4.12986L10.4618 4.05043C10.5892 3.82335 10.7892 3.48315 11.1364 3.02744L11.1399 3.02267C11.4268 2.627 11.7682 2.26878 12.2162 2.00842C12.6624 1.74916 13.2278 1.57914 13.975 1.57914C15.9607 1.57914 17.625 3.32359 17.625 5.46583C17.625 6.60404 17.1133 7.53613 16.3202 8.4193C15.7146 9.09375 14.9643 9.71995 14.1739 10.3797L14.1739 10.3797C13.9189 10.5925 13.6597 10.8088 13.3999 11.0313C12.891 11.4672 12.4427 11.8534 12.0497 12.1921L12.0492 12.1925C11.6294 12.5542 11.2727 12.8616 10.9724 13.1172ZM6.38806 12.9225L6.38896 12.9232C6.61564 13.116 6.82695 13.296 7.0238 13.4637L7.02547 13.4651C7.54264 13.9056 7.95985 14.261 8.29323 14.5384C8.74827 14.917 9.0655 15.1661 9.27529 15.2868C9.48954 15.4101 9.75741 15.5 10 15.5C10.2839 15.5 10.515 15.4075 10.7247 15.2868C10.9336 15.1666 11.2115 14.9553 11.6607 14.5782C12.1133 14.1983 12.7528 13.639 13.6894 12.8124L13.6904 12.8115L14.4361 12.1678C14.53 12.0906 14.6146 12.0176 14.6951 11.9482L14.6951 11.9481L14.6951 11.9481C14.8557 11.8097 14.9994 11.6857 15.1663 11.5713L15.1737 11.5663L15.1807 11.5607C17.1505 9.99203 19.25 8.2659 19.25 5.46583C19.25 2.45901 16.8969 0 13.975 0C12.3158 0 11.0253 0.604226 9.99738 1.86076C8.97051 0.638594 7.68252 0.0363627 6.02661 0.0359715C3.1023 -0.00101194 0.75 2.46034 0.75 5.46583C0.75 8.21887 2.87204 9.98035 4.79419 11.5759L4.81529 11.5935L4.8189 11.5964C5.04287 11.7754 5.29801 11.9854 5.51444 12.193L5.5207 12.199L6.38806 12.9225Z" fill="black"/>
<path fill-rule="evenodd" clip-rule="evenodd" d="M46.5632 15.3132C46.7014 15.175 46.7895 14.9605 46.7326 14.7329L45.8633 11.3178C46.4279 10.2491 46.7401 9.02764 46.7401 7.74504C46.7401 3.46078 43.2793 0 38.995 0C34.7108 0 31.25 3.46078 31.25 7.74504C31.25 12.0293 34.7108 15.4901 38.995 15.4901C40.2776 15.4901 41.4991 15.1779 42.5678 14.6133L45.9819 15.4824L45.9829 15.4826C46.2105 15.5395 46.425 15.4514 46.5632 15.3132ZM45.2833 7.74504C45.2833 8.97155 44.9787 9.88815 44.4834 10.8168L44.4804 10.8226C44.3956 10.9923 44.3505 11.2082 44.3948 11.43L44.9661 13.7151L42.7242 13.1476L42.7119 13.1451C42.5348 13.1097 42.2927 13.094 42.0819 13.2427C41.5251 13.5506 40.4883 14.0333 39.0269 14.0333C35.5283 14.0333 32.7068 11.2102 32.7068 7.74504C32.7068 4.27911 35.5291 1.45681 38.995 1.45681C42.461 1.45681 45.2833 4.27911 45.2833 7.74504Z" fill="black"/>
</svg>